<svg xmlns="http://www.w3.org/2000/svg" width="843" height="843" fill="none" viewBox="0 0 843 843">
  <path fill="#fff" d="M0 0h843v843H0z"/>
  <path fill="red" fill-rule="evenodd" d="M575.689 684.638a5.265 5.265 0 01-.628-1.734c.72 1.31.203-.166.406-.314a1.848 1.848 0 01.702 1.236c1.071-.756-1.847-3.339-2.53-4.723-.683-1.384.573-1.513-.48-3.174-.314.111 0 .628 0 .923-.979-1.255-2.253-2.823-2.179-4.115.702 1.015.72-.147.184-1.015-.664-.35-.757-.996-1.643-1.845 1.108.388-.96-1.937.443-1.218-.923-1.605-.702-.276-1.422-1.144 0-1.217-.111.001-.849-1.125.166-.387-.277-1.126.351-.72a32.08 32.08 0 01-2.309-4.004 3.852 3.852 0 01-1.071-.535 22.771 22.771 0 00-2.216-4.52c1.127-.591-1.588-5.185-1.625-7.159-.185 0-.351.332-.572 0-.444-.849.406-1.255-.499-1.845-.591.129.554 1.383-.129 1.439a29.124 29.124 0 01-3.694-6.071c.425 1.144 1.478 1.403 1.256.831a7.397 7.397 0 01-1.957-2.067c.35.185.664 0 1.015.111-.775-1.845-2.142-3.321-2.659-4.631.185 0 .406.184.628.424 1.367 2.085 2.678 5.997 4.044 6.679-1.477-2.066-2.345-5.314-4.321-7.805.812-.442-2.604-3.967-2.161-5.443a37.388 37.388 0 01-5.872-11.513c.166.221.332.276.443.11a4.872 4.872 0 00-1.329-1.66c.203.387.387.775 0 .83-1.238-2.159-1.367-2.878-2.18-4.115.296 0 .61.203.905.203-1.256-1.716-.628-2.177-1.846-3.893-.259.443.203 1.273-.665.498.406-.239-.166-1.125-.166-1.642-.554-.443-.259.978-1.035-.111a30.703 30.703 0 00-2.437-3.911c.609-.222-.573-2.214.406-1.624-1.016-1.956-.942-2.657-2.087-3.303.684.185.166-1.033 1.108-.387-.295-.609-.535-.572-.831-1.126-.24.351-.332 1.237-.997.277-1.644-3.561-3.509-8.137-5.54-9.964a.535.535 0 01.702-.092l-.887-1.55c-.24.443-.554.24-.941-.627.997.351-.13-.849.461-1.218 1.145 1.144 1.256 2.731 2.087 4.631 1.2.148 3.158 4.429 3.01 5.241.185-1.846-2.401-6.421-3.416-7.602a41.513 41.513 0 00-2.346-6.514c-.24.48-.627-.442-.941-.627-.314-.184-.093.83-.628.923.48 1.31.702.313 1.145 1.328-.887 0 .424 1.55-.407 1.642-.72-1.55-1.292-4.022-2.308-4.022l-.886-1.532c.351.185.664 0 1.034.111-.942-1.845-.554.794-1.57-1.052 0-.756.185-1.07-.572-1.328-.093-1.273 1.108.129.941-.701-.24.129-1.44-1.956-1.237-2.159.203-.203.536-.314.887.221-.979 0 1.126 1.846 1.606 2.768 0 .517-.332.793-.147 1.421.72-.351 1.052 1.679 1.237 2.177.738-.904-.462-2.565-.776-3.376.406-.314.702.996 1.422 1.125-.849-1.181-1.976-2.233-1.643-3.174-.425.111-1.108-2.269-1.422-1.144.314 1.034 1.255 1.292 1.052 1.846-1.292-.775-1.034-2.049-1.496-3.285-.664 0 .462 1.07-.184 1.015-.185-.314-.333-.277-.499-.517a7.38 7.38 0 01-1.108-3.579c-.591-.849 0 .627-.222.609a3.016 3.016 0 00-.664-.831c-.148-.535-.351-1.125 0-1.328.351-.203.794 1.125 1.071.535a5.718 5.718 0 01-1.274-2.583c-.499-.554-.887-.111-1.441-1.144-.314-.646 0-.867-.295-1.532a8.669 8.669 0 01-2.143-3.69c-.443-.147-.941-.793-1.421-1.162.738 1.623 1.422 2.085 1.329 2.989a3.424 3.424 0 00-.794-.72c.406.775.757.794 1.145 1.329-1.034.258.997 1.992.85 2.472-.241 0-.518-.258-.721.092 1.367 1.513 3.103 4.134 2.937 5.757.609-.904 2.031 3.137.664 2.141.924 1.605.702.276 1.422 1.144-.184.332 0 .922-.314 1.125-2.345-2.343-2.751-4.484-3.545-7.51a39.157 39.157 0 01-2.586-3.8l.407-.314c-.499.092-2.087-3.321-1.958-2.067a4.183 4.183 0 011.33 2.989c-1.238-1.845-1.496-3.155-2.715-5.037.702.129.351-.369.314-1.125-.739.682-1.662-1.587-1.016-1.44-1.662-2.638-2.77-6.125-5.023-9.059a5.134 5.134 0 00-1.699-3.69c.185-.148.388 0 .591 0-.868-1.163-.738-1.624-.664-2.159-1.053-.941.203 1.587-.499.812-.314-.904-.905-1.993-.702-2.565-1.182-2.196-4.247-6.679-4.709-8.838-1.496-1.587-7.387-12.067-4.395-8.635-1.089-2.251-2.807-4.761-3.545-6.163.904 1.476-.259-.664.535-.406-.646-.812-.794-.941-.757-1.642-.702.314-.979-2.27-1.847-2.583.093.166.093.443-.129 0 .199-.386.348-.795.443-1.218.794.535.665.978 1.514 1.974.148-.922.573-.092 1.164 0a32.196 32.196 0 01-3.693-6.993c-.61.166.683 1.587.35 1.938l-.886-1.55a.939.939 0 00-.185 1.033c.443-.461.462 1.015 1.108.922.148.554.591 1.274 0 1.329-.351-.517-.757-1.642-.978-1.033.554.719 1.015 1.273.923 1.956-1.441-1.347-3.029-5.813-4.894-7.824 0-1.273-3.084-7.196-3.693-6.476a3.374 3.374 0 01.148-1.439c.72.922 1.625 3.579 2.216 3.192-.905-1.347-2.253-3.322-.831-2.454-.481-.886-.813-.425-1.293-1.237l.535-.406c.37.683 1.662 3.045 1.33 1.643-.702-.296-1.108-1.993-1.293-2.565-.572-.332-2.622-3.69-2.068-4.613.185 0 .406.185.609.406.554 1.07.998 2.786 1.607 2.786 0 .535-.258.757-.665.498.813 1.569.499-.129 1.071.517 0 .646 0 1.384.739 1.661a25.134 25.134 0 00-4.21-8.34c-.148-1.624-3.306-4.908-2.124-6.348-.591-.738-1.441-2.38-1.2-3.081-.444-1.033-.702-.314-1.145-1.347-.739-2.011 0-1.956.369-3.358-.739.572-2.05-2.048-2.235-3.192.185-.129.444.443.628.406-.147-1.402-1.625-1.107-1.422-2.473 0-.941 1.201 1.624.758.333-.924-.849-.388-1.846-1.385-2.067-.204-.59.129-.812 0-1.329-.961-.313-4.119-6.125-2.66-5.959-3.804-5.536-6.98-14.577-9.953-19.928.332 0 .646-.332 1.071.517-.13.203-.351.923.572 1.328-.332-.535-.277-.811 0-.904.739.886.683 2.196 1.422 2.473-.462-.941-1.477-3.192-1.847-3.912-.24 0-.683.369-1.329-.332 1.256-.203-.628-1.328-.536-2.251.739.812.905-.387.351-.701.425.756-.406.387-.572 0-.573-1.366.628-2.51-.48-3.155-.388.11.886 1.347.129 1.217-.757-.129-1.016-1.955-1.459-2.878-1.09.111-2.179-1.236-2.955-3.1.813 1.329.573.388 1.034.111a19.517 19.517 0 01-2.437-5.24c.369.572 1.662 3.118 1.385 2.066-1.127-1.568-.628-2.066.129-1.42-1.089-1.292-.554-1.679-1.736-2.694.166-.129 0-.517.24-.609.24-.092.61.313.96 1.052a14.225 14.225 0 00-.332-3.285c-.572-.147.277 1.532-.369.72-.573-1.402-.979-.997-1.514-1.974.757-.24-.481-1.846-.573-2.657 1.367.977.997 3.062 2.105 3.302-.498-.83-.905-2.066-.221-2.048.498.683 1.108 2.362 1.551 2.362-.628-1.698-1.57-2.786-.831-3.69-.887 0-1.404-2.528-2.53-3.395 0-.757.388 0 .351-.72-.776-.793-.222-1.624-.757-1.642.424.775-.407.406-.573 0 .314-.295-.332-1.236-.794-2.048.536-.092 0-.83.628-.923-2.216-2.86-2.29-5.627-4.1-8.432.111-.314.905-.147.499-.793a3.483 3.483 0 01-1.681-2.27c.167-.129.425.443.61.406-.443-1.531-3.38-5.997-1.533-5.019-1.052-.848-2.899-3.45-1.994-3.801-.665-.922-.739.24-1.034-.11-.591-4.06-3.694-7.086-4.488-10.794-.646.369-.905-3.432-2.253-3.691a1.845 1.845 0 01-.129-1.217A62.713 62.713 0 01438 377.351c.85-.314-.277-1.956.333-2.435a69.043 69.043 0 0111.08 19.023c4.302 6.919 7.479 14.908 12.612 20.591 2.309 4.097 5.799 9.724 8.089 14.761 0-2.675-4.081-6.993-4.395-9.963.443 0 .849-.222 1.311 0a11.625 11.625 0 01-1.016-5.425 28.771 28.771 0 01-3.859-10.37c-.443-1.014-.702-.313-1.145-1.328.388-.129 0-.794.48-.812a3.696 3.696 0 01-1.145-2.675c-1.57-1.55-.683-1.993-2.271-3.598l.406-.314c-2.013-3.414-2.198-6.458-4.488-9.447.296-.111.111-.572.37-.701-.942-1.845-1.718-2.583-1.551-3.69-3.288-5.056-4.303-10.315-8.44-15.315a2.026 2.026 0 00-.129-1.236c-1.625-1.845-3.934-6.347-5.374-8.34a8.975 8.975 0 00-1.533-.628c-.498-.867.794.462 0-.811-.794-1.274 0 1.383-.535.387a2.826 2.826 0 00-.443-1.421c-.481.628-1.201-1.162-1.847-2.177-1.847-.83-3.933-4.188-5.743-4.982a14.763 14.763 0 00-6.999-7.14c.184-.683-.868-1.015-.757-1.643-.13 1.089.166 1.292-.684 1.846-.221-.388-.406-.296-.664-.812.221-.259.498.129.72-.093a8.319 8.319 0 01-2.087-1.974c.72 2.03-1.699-.886-1.754-1.347a5.421 5.421 0 001.846 3.082c-.24.092-.443.479-.72.092-1.126-1.845-1.643-3.82-3.102-6.071-.684-.387-.425 1.126-1.385-.719.628-.259 0-1.845.941-.701-.646-1.532-1.071-.941-1.698-2.27l.406-.314c-.443-1.014-.702-.313-1.164-1.346a35.929 35.929 0 01-.775-4.687c.683 1.845 2.216 3.081 2.216 4.52-.499-.608-1.034-1.623-1.478-1.549.481 1.845 1.847 1.513 1.958 3.376 2.179 2.104 2.585 5.738 4.321 6.495-1.329-2.639-.942-5.886-2.401-6.144.37-.111 1.109 1.587.758 1.642a1.531 1.531 0 01-1.108-.941c0-1.513-.573-1.236-1.644-3.192.887.627-.462-1.956.794-.591-.129-.885-1.847-2.472-1.182-3.081.443.572.997 2.14 1.367 2.048-.536-1.052 1.108.904.535-.387-1.385-1.126-.535-2.307-1.846-3.506.166-.111.406.258.572 0a2.565 2.565 0 01-.757-1.642c-.683 0 .462 1.31-.129 1.42-1.976-3.339-2.715-4.114-2.715-6.365.24.35.499.904.683.83-.184-.424-.203-.756 0-.922a6.533 6.533 0 00-1.994-2.473 68.337 68.337 0 00-7.147-15.407c.277-.203.647.701.887.203-.961-1.439-2.29-2.269-2.087-.627-.499-.72-.148-.867-.757-1.642l-.813.59c-.72-1.402-1.348-1.845-1.846-1.661.092.812-1.108.775-.665 1.846a3.417 3.417 0 011.551 2.38c.425-.185.739-1.181 1.33.314-1.219-.351-.61.11-.13 1.42-.775.148-2.049-1.328-2.179-2.786l-.535.406a11.648 11.648 0 002.844 3.69c-.481 0-1.053-.756-1.57-1.051 1.422 3.099 6.316 10.849 4.118 11.495a12.14 12.14 0 002.234 4.52c.573 0-.184-.996 0-1.328a3.682 3.682 0 011.238 3.487c.462-.443 1.625 1.55 1.385 2.067.628-.13 1.477 1.328 1.366 2.066-.166-.221-.314-.277-.443-.111-.295-.442-.609-1.18-.849-1.144.406 1.015.443 1.292.314 1.55.517.425.591 1.034 1.292 1.237-.24-.609-1.126-.997-.886-1.55.711.247 1.32.72 1.736 1.347 0 2.435-.997 1.531-3.398-1.845a3.805 3.805 0 00-1.016-2.768c-.554-.148 0 1.328-.665.498-.664-.83-.11-1.421-.941-1.937-.758 0 .775 1.383 0 1.31-1.256-.683-1.312-2.214-2.53-3.395.129-.166.406-.24.221-.609-1.44-1.31-2.16-3.377-4.007-6.292.591 0-.388-1.144 0-1.31a27.4 27.4 0 01-2.641-4.226 21.644 21.644 0 014.986 8.636c.166-.96-.886-2.75-.831-3.783-.443-1.015-.72-.313-1.163-1.347.166-.83 0-1.845.942-.701-.702-1.218-.813-1.513-1.958-2.066.203.664.997.738.702 1.236-.868 0-1.164-2.214-1.644-3.192-.369.387.444 1.568.222 2.048a16.585 16.585 0 00-1.588-2.768.7.7 0 00-.37.701c-1.532-1.642-2.751-4.705-3.878-5.055-.11.553.333 1.476.222 2.048-.923-1.476-1.09-3.93-2.031-5.536a9.134 9.134 0 011.551 2.362c.185-1.531-.942-2.214-1.607-2.786 0-.72.573-.996.185-1.015-.646-1.07 0 .997-.573 0l-.35-.627c.35.258.683-.351.627-.904-.332.11-.757-.646-1.071-.517.462.757.813.775.573 1.329a23.233 23.233 0 00-2.235-3.193c.573-.202.111-2.066-.701-2.564.461.756.886 1.476.628 1.734a12.493 12.493 0 00-2.992-3.506c-.573.24-.222 1.108-.093 1.846.518-.167-.258-1.329.499-.812a8.722 8.722 0 002.438 3.911c.184 1.034-1.145 1.329-.499 2.141-.406-.628-.628.35-1.016-.129.61.922.296 1.365-.184 1.014.702.868.425.849 1.015 1.458a4.989 4.989 0 000 3.469c.37-.222.001-1.845.591-1.329.481.831 0 .997.481 1.845.941-.11-1.238-4.003-.259-3.69.591 1.033.314 1.476 1.163 2.676-.701.184.407 2.158.351 3.266-.406-.48-.351-1.569-.886-1.532.443 1.329-.61-.517-.757-.314-.148.203 0 1.034-.37.702a24.276 24.276 0 00-4.542-5.886c.535 1.291 3.36 4.077 3.471 5.369.203.35-.978.849-1.071.793.961.425.259 1.292.794 2.048.222-.129.444-.387.757.314l-.535.406c-1.182-1.568-1.847-3.266-2.438-3.912.096.262.096.55 0 .812-.683-.849-.332-1.181-1.329-1.642.923-1.531-1.847-4.391-1.847-6.569.886 1.329 1.182.369.942.628-.499-.222-1.367-2.288-.831-2.454.868 1.088 0 1.033.48 1.845.535-.443.148-1.495-.536-2.251-.369.609-.849.129-1.385-.738.462-.259 0-1.163.591-1.31-1.459-2.288-.443-1.845-.701-2.565-.721-1.531-.111.683-.757-.314-1.238-2.214-.942-3.782-2.18-5.535a.575.575 0 01.721 0c-.702-1.052-.758-2.639-.388-2.362.609.646-.203 1.218.572 1.347-.166-.443-.184-.775 0-.922-.812-.849-.997-1.44-.812-2.049-.61-.184-1.681-2.878-1.847-3.911.443-.388 1.09 1.125 1.57 1.033-.407-.646-.462-1.052-.13-1.218.222.351.481.886.665.831a5.764 5.764 0 00-1.2-1.753c-.48 1.974-1.976-1.366-2.77-1.476a5.537 5.537 0 00-1.293-2.565c-.148.775-.646.498-1.329-.332a1.587 1.587 0 01-2.354.215 1.582 1.582 0 01-.453-.75c.184.369 0 .498-.24.609.314.553 1.403 1.513 1.255 2.158-.591-.406-.24-.627-.886-1.55-.222.702-.683-.922-.905-.221.536.996.96 1.845.536 2.251 1.274 1.753 2.031 1.845 3.028 3.93-.148.111-.314-.129-.443-.11a17.473 17.473 0 003.195 4.225c-.13.111 0 .369-.093.516-1.015 0-.701-.719-1.514-.645 0-1.181-.831-.757-.48-1.845-.277.147-.683-.96-.942-.628.166.646.72 1.845 0 1.329.702 1.291 1.385 1.679 1.274 2.564a2.14 2.14 0 00-1.145-1.347c.148-.59-.738-2.066-.369-.608a8.01 8.01 0 00-1.422-2.473c.259.351.24 1.347-.222.609-.461-.738 0-1.31-.203-2.048-.572-.406-.184.738-.905-.221.905.627-.184-.923-.609-1.735-.499.664-.609-.295-.979-1.033a5.048 5.048 0 01-4.653-1.402 16.305 16.305 0 00-.924-1.846c-.387-.479-.628.499-1.034-.129.351-.203.462-.572.314-1.107-.148-.535-.535.332-.886-.221-.277-1.495.923-.794.314-2.454-.388.129 0 .793-.499.812a30.579 30.579 0 01-2.382-4.816c.886-.166.351-1.292 0-2.251 1.274-.148.775.516.905-1.107.295.443.609 1.162.849 1.125-.277-.756-.295-1.328.277-1.531.277.461.61 1.181.831 1.144-.942-1.513.924-1.163 0-2.657-.147.959-1.514.535-2.641-.24.185.387.536.867.407 1.033-1.274-1.937-2.216-.849-3.564-3.524-.167-.498.48-.443.184-1.015-1.015 0-2.142-.904-3.268-1.993a9.339 9.339 0 010-2.14c.22.284.489.528.794.72-1.09-1.587-.813-2.62 0-1.845-.72-1.403-1.293-1.31-1.995-2.473.591 0-.184-1.015 0-1.328.961 0 1.496 2.085 2.013 2.472.314-1.568 2.586 3.524 3.694 3.93.812-1.218-1.219-1.845-2.124-3.69-.351-.793-.222-1.661.443-1.218a10.588 10.588 0 01-2.844-4.945c-.609-.609 0 .867-.72 0a3.693 3.693 0 01-.259-1.125c.296.535.554.719.795.738a3.54 3.54 0 01-.554-2.676c-.185.351-1.256-1.088-1.035-1.439.24.406.407.111.628.424.961 1.846 1.847 3.211 2.623 2.897a24.608 24.608 0 00-.425-5.424c.868 1.384.775 2.122.535 2.251.647.092.554 1.697 1.145 1.347-.129-.978-.775-2.307-.295-2.86.48-.554.738.59 1.071.516-.48-1.568-1.034-3.819-.129-3.874-.444-1.015-.702-.314-1.145-1.347.221-.775 1.348.24 1.071-.794-.573-.332-1.09-.221-1.699-.941.148-.221 0-.682 0-.922s.979 1.845 1.293 1.236a8.868 8.868 0 00-.85-2.454c-.277.461 0 1.642-.979.295-.111-.775 0-1.384 0-2.14a1.573 1.573 0 01-2.326 1.291c.59.904-.001.96-.13 1.421-.406-.535-.886-1.993-1.163-1.347.535 1.218.461.849.48 1.845.591-.848 2.622.554 2.548 2.085-.424-.313-.923-.332-.849.185.48.941 1.2.756.886 1.55-.886-1.476-.369.406-.369.701l-.665.516c-.609-1.217-1.976-2.324-2.087-3.302.37-.093.961 1.697 1.293 1.236-.24-1.329-.997-1.845-1.2-3.063a1.445 1.445 0 00-.942-.627c0 .387.369 1.125 0 1.31-.222-.388 0-.554-.388-1.015l-.277.203c0 .147-.258.203 0 .498a8.948 8.948 0 011.958 4.724c-.407-1.606-.591-1.034-1.607-2.768l.406-.314a7.385 7.385 0 01-1.182-2.306c.13 1.218.591 1.845 0 2.251a14.221 14.221 0 012.623 4.225c-.831-1.845-1.367 0-1.311 0 .978 1.273 1.625-.092 1.976 2.067-.518-.775-.979-.867-1.349-.314.684.96.314 1.218.481 1.845a3.697 3.697 0 00-1.293-1.254c.388 1.346-1.164-1.2-.85.202a8.21 8.21 0 011.348 1.643c-.646.442.444 3.044-.812 1.845-.296-1.034-.776-1.236-1.293-2.583-.498 0 0 .83-.184 1.033a13.277 13.277 0 00-2.143-2.38c.148.424-.498 1.273-.627.904.35-1.181-1.533-2.713-1.847-3.893.517 1.014-.222 1.033-.665.498.462.812 1.237 1.845.48 1.845a9.536 9.536 0 00-2.087-3.303c.167-.517.167-1.162.721-1.421-.351-.553-.684-.959-.979-1.033.591 1.439-.683.461-1.034 1.218-.591-1.107-1.034-.683-1.607-1.458.702-.406.591-1.845 1.477-1.107a8.604 8.604 0 00-1.421-2.472 4.176 4.176 0 00.203-3.691c-.573-.406-.167.72-.905-.221.092-.517-.573-1.531 0-1.734.628.682.351 1.623.849 1.125a22.955 22.955 0 01-1.274-3.893c.813.904 2.918 2.362 2.881 4.022-.259.185-.646-.719-.886-.221.406 1.088.867 1.291 1.292 2.565a.625.625 0 00.464.085.61.61 0 00.386-.27c-.204-.369-.536-.849-.407-1.033.573-.48 1.33.756 2.087 1.974-.517-1.974.591-2.638 1.441-2.841a13.628 13.628 0 00-1.275-2.565c1.182.793-.258-1.126-.184-1.642.849.812.572.129.369-.701.351-.222.886 1.051 1.237.83a20.432 20.432 0 01-.517-2.251c-.554.719-.572.793-1.385.59.554 1.2-.498 1.458 0 2.141-.295.424-.775-1.052-1.108-.923.185.517.24.923.443 1.439.222-.111.425-.48.702 0a9.352 9.352 0 01-.277 2.842c-1.366-1.993-.203-2.288-1.459-4.207.573.406.314-.425.499-.812-.499-1.126-.776 0-1.293-1.236-.517-1.237.443-.462.185-1.015-.665-.461-.277.59-.85.184.628.923.684 1.477.167 1.643-.961-1.292-.277-3.248-1.681-3.691l.886 1.55c-.517.148-.129 1.126-.849.185.203-1.015-.849-.738-1.459-1.55.132.812.218 1.632.259 2.454-.388-.904-.517.701-.905-.222-.222-.553.72-1.254-.166-1.623.184 1.015-.481.59-.462 1.218.499 1.014 1.052 1.014.757 1.642-.905-.462-1.219-2.731-1.588-2.786 0 .719.148 1.494-.24 1.937-.702-1.126-1.293-1.218-1.995-2.473 1.09.093-.812-1.845-.535-2.251.739 0 .702 1.274 1.551 2.362.148-.756 0-.941.813-.59-1.108-1.07-.924-2.011 0-1.735-1.607-1.162-1.348-3.284-3.066-5.664-.665.738-.757-.831-.702-1.236-.24.184-.314 1.42-.941.701-.222-.406 0-.554-.407-1.034-.554.314-1.237-.738-1.846-.424.11.258.35.609.221.72a31.909 31.909 0 01-1.366-3.395c1.052.221 1.994-1.218 1.44-2.823.665.258 2.253 2.195 2.272.941-.388-.111-.795-.222-1.293-1.237.184-.258 1.182.369.812-.609-1.218-1.18-1.311.277-2.363-.442.184.645.369 1.254-.148 1.439-.443-1.033-.776-1.033-1.2-1.753-1.33-.185-2.53.756-3.934-.166.554 1.144 1.219.553 1.348 1.66-.369.259-.868-.756-1.219-.424.277.48.628 1.052.277 1.126-.24-.351-.498-.904-.683-.831-.185.572 0 1.458-.221 1.938-1.367-2.288-2.143-1.181-1.385.59-.758 0-1.367-.627-2.457-1.255 0-1.476.794-.572 1.348-1.014-1.034-2.565-2.714-.48-1.698.387-.591-.184-.85-.886-1.201-1.753-.277.609-.775-.867-1.071-.516.443.664.628 1.181.443 1.439-.387-.314-.794-1.052-1.163-1.347-.683 1.199-1.145.904-2.29 1.697.148.738.72 1.846.536 2.251-.61-.332-.794-.387-.998.296a3.668 3.668 0 00-.831-1.126c-.757 0-.147 1.033-.591 1.31a10.331 10.331 0 01-1.292-2.565c-.203.259-.499-.129-.702.093.369 1.088 1.366 1.42 1.237 2.159-.369.369-1.108-.739-1.163-1.347-1.108 0-4.192-3.691-3.176.166-.277-.388-.536-.443-.831-1.144-.37.904-.628.701-.554 1.734-.277-.406-.518-.351-.795-.72-.627-.793-.276-.941-.757-1.642-1.846-.793-2.714 2.288-.111 4.484-.387.314-.849.221-1.329-.332a28.617 28.617 0 00-1.551-3.69c0-3.322.517-6.274 3.49-3.931 1.089.868 1.348 2.233 2.419 2.178-.849-1.366-1.274-1.698-1.477-2.879-.887 1.218-2.419-3.69-3.509-4.428-.111-.59.351-.793-.185-1.642a9.932 9.932 0 00-1.292-1.236c-.259-1.495-1.847-3.248-3.103-6.071.13-.111.314.129.443.111-2.123-3.045-3.065-6.735-5.54-9.06a23.178 23.178 0 00-1.551-3.69c.425-.277.425-.849.591-1.31-4.063-3.192-6.685 1.568-3.379 7.805a35.011 35.011 0 004.783 12.325c-.148.738-.61 0-.628.904a7.84 7.84 0 011.68 4.927c.517-.092.24.756.702 1.236a5.53 5.53 0 01.203-2.343c1.847 3.34 3.213 3.69 4.34 6.882-1.57.111-3.417-2.232-4.912-1.181-.222.609.572 1.845 0 2.251.205.423.487.805.831 1.126-.425 1.587.812 3.801 2.53 6.052-.277.664-.61.535-.13 1.439-.221.701-.683-.922-.905-.221.111.258 0 .443-.092.516.217.421.505.802.85 1.126-.462 1.937 3.397 9.225-.148 6.735a12.886 12.886 0 01-1.477-2.879c-1.072.129-1.552-2.601-2.66-3.303 1.219 2.196 1.238 3.137 2.623 4.226-1.072.221-.296 2.066-1.533.682.524.994.886 2.066 1.071 3.174-.646-.812-.111.664-.683.517a3.323 3.323 0 00-1.958-2.085 8.697 8.697 0 00-1.329-4.299c-.185 0-.351.35-.573 0a7.04 7.04 0 00-1.367-3.396c-.572.72-1.348.111-1.495 1.108-1.958-2.602-1.515 1.549-3.564-.868 1.625.941 1.846 3.691 3.213 4.226a7.567 7.567 0 00.166 2.97c1.182-.627 2.511 3.377 2.031 4.207.721.886 1.422 1.569 2.143 2.38-.148 0 0 .369 0 .499-.776 0-1.404-.812-1.847-1.643.332.536.277.812 0 .905.462.627 1.477 1.752 1.126 2.269-.628-.646-1.274-2.343-1.348-1.661 1.219 1.477-.628 0-.277 1.532-.757-.535-1.034-1.845-1.588-2.786-.572-.129-.332.48-.72.11-1.644-3.265-3.047-5.037-4.081-7.103.572 1.291-.702.424-1.201-.425.388-.701-1.034-1.439-.978-2.361.738.461.775.83 1.366 2.048.665.147.314-.591.997-.277-.498-1.384-.646.314-1.071-.535-.24-.48-.72-1.107-.591-1.329.13-.221.573.702.776.314-.886-1.531-.609-1.734 0-1.845a4.127 4.127 0 01-.48-1.845c-.296.11-.111.553-.369.701-.37-.295-.795-1.033-1.164-1.347.646.627.277-1.568-.48-1.845 0 .424 0 .83.129 1.236-.979-1.679-.535-2.546-1.514-3.284.222.443-.092.572 0 .904-.111-.867-1.071-1.956-1.514-1.956.443.683 1.052 1.126.757 1.642-1.127-1.236-1.348 1.845-.24 1.938-1.478-2.454 1.219-.886 0-.812.461 1.07.701.092 1.126.941-1.015 1.845-1.846-1.366-3.213-1.587a3.696 3.696 0 011.422 2.472c-1.108 1.347-.48 4.429.868 6.846-.683-1.495-1.164-.923-1.699-.941.831 1.328.406 1.439 0 2.251a3.202 3.202 0 011.256 2.159c.406.295.738-.351 1.2.424.462.775 1.126 2.602.222 2.048.867 1.107 1.495 3.063 2.493 2.989a4.28 4.28 0 01-.277-1.125c.184.313.369.609.535.922 0-2.657 3.472 1.107 3.084 3.008-.221-.425-1.274-2.251-.849-1.144.535.756.591 1.162.129 1.236 0-.646-.887-1.384-1.293-1.236a2.878 2.878 0 01.665 2.14c1.459 1.052 2.77 4.152 4.543 5.886-.148.222 0 .664 0 .923-.296-.48-.591-1.089-.794-.738.868 1.845 1.533 1.697 2.345 3.099-.277.499.129 1.661.369.609.831 1.255 1.201 2.196.388 2.362-1.237-1.624-.757-.738-1.643-1.845.369.886.166 1.384.517 2.251-.222.166-.554-.793-.794-.72.24 1.661 1.182.978 1.846 1.753l.887 1.55c-.166.203-.554.259-.351.701.591-.24.831-.313 1.293 0 .461.683-.185.628.129 1.218.185 0 .425.388.665.83.443 0 1.514.536.628-.904-.536-.203 0 1.163-.536.388s-.166-1.126-.166-1.624c.757.443 1.551 3.045 2.123 3.69-.221-.424.167-.572.462.111-.295.535-.702-.221-.997.295.702 1.513 1.237 1.587 1.847 2.583-.167.148 0 .536-.24.609-.776-.848 2.345 2.934 3.157 3.82-.129.092 0 .369 0 .516-.554-.553-1.015-.295-1.532-.645-.573-.72-.573-1.993-1.238-2.159.556.859.863 1.855.887 2.878-.757-1.476-1.034-.221-2.013-1.162-.259-.757-.388-3.174-.573-2.657.111.258 0 .443 0 .516-1.034-1.697-1.144-3.45-2.437-3.911a13.318 13.318 0 011.847 3.487c-.444 0-.924-.609-1.459-1.55-.24-.719-.444-1.421-.665-2.159-.831-.461-.887 1.384-1.847.499.388.83.96 2.767 1.625 3.173a4.796 4.796 0 01-.48-1.845c2.512 2.38 1.034 4.355.351 4.613.323.707.499 1.473.517 2.251-.572.424-1.477-2.214-2.05-1.568.277.904 1.09.572.85 1.144-.961-1.181-.647 1.07-1.644-.536l.536-.405c-.868-1.753-1.311.479-2.106-.646 0-.351-.59-1.753-1.015-1.439-.425.313 1.108 1.642.295 1.531-.221.166-.554-.793-.794-.72.406.978-.572-.147-.665.499.388.83 1.127 1.845.702 2.564.683-.627.923.535.942-.701.129.646.517 1.845-.148 1.421 1.847 2.897 2.715 5.535 4.321 7.823-.221.683.185 1.845-.203 2.344-.388.498-.775-1.052-1.108-.941.185.405 0 .313-.258.202.35.993.556 2.031.609 3.082-.665-2.141-1.182-.83-2.142-2.38.609-.185-.739-2.639-1.33-2.989.204 1.402 1.385 2.62.924 3.284-.443-.923-1.219-2.343-1.847-2.159a8.517 8.517 0 01.96 3.69c-.461-.572-1.846-5.203-2.751-5.443.905 2.325.886 3.69.351 4.595.314 1.033 1.255 1.291 1.052 1.845-.757-1.569-.129 1.513.443 1.42-.517-.867.37-1.07.85-.184-.61-.424-.573.572-.757 1.015a21.302 21.302 0 003.416 4.945c-.628-.923-.388-1.421-1.052-1.845 0-1.329.72-1.126.277-2.842.867 1.292.701 1.273 1.514 1.956-.185.424-.942-.554-.24.609 1.126.424 1.846 2.564 2.013 3.801 1.163 1.457 5.152 6.199 4.081 7.103.17.314.395.596.665.831.757.941-.444-.904.221-.609.185.295.333.277.499.517.166.239-.166 1.845.351 1.937.978.221 3.693 5.185 5.337 6.605a4.662 4.662 0 001.015 2.768c-.129-.258 0-1.255.222-.609.628.646.351 1.587.886 1.55-.092-.184-.092-.443.148-.092.554 1.255 0 1.845 0 2.638-.295.462-1.533-1.033-1.293.093.85.424 1.57 3.911 1.551 5.018-.812-1.199-2.142-1.642-2.529-3.395-.868 0-1.201-.479-1.847-1.66.554.387.369-.406.185-1.015-.444.775-.85.48-.591 0-.628.461-.813-1.273-1.238-.83.591 1.845 1.422 1.586 1.847 3.081-1.477-1.144-2.401-3.801-3.878-3.69a15.953 15.953 0 01-1.68-3.691c0 1.2-1.219-1.383-1.478-1.549-.702.092.129 1.217-.591 1.328.462.627 1.274 1.439.942 1.845-1.219-1.531-1.551-3.063-2.622-4.207.166.775-1.145-.793-1.57-1.051.185.387 0 .295-.258.203.209.601.369 1.218.48 1.845-.924-1.163-.148.535-.499.812-.351 0-.831-1.532-1.108-.941.203.701.886 2.675 1.422 2.472-.868-1.642.794-.886 1.57-.277-.203 1.347 1.957 3.561 1.237 4.816.376.115.731.29 1.053.517.609 1.642.997 2.804-.185 2.343a1.845 1.845 0 01.314 1.531c-.37-.295-1.514-2.269-1.145-2.657-.462-.775-.813-.775-.905-1.549a7.105 7.105 0 00-1.514-.628c-.61-1.845-1.09-1.384-1.588-2.786l-.942.701c.258.904 1.126.978.886 1.55-.72-.849-1.68-1.125-1.606-.129a1.844 1.844 0 01-.721-1.236c0 .812-.24 1.476-1.071.793.499.794.72 1.365.314 1.55.296.59.536.554.831 1.125a.724.724 0 00-.351.702c-.683-.941-1.311-.665-2.271-.941.092.258.092.443 0 .516 1.052.923.369 1.845 1.367 2.048-.222.997-.555.757-1.072.812 0-.535-.48-1.291-.849-1.144a6.827 6.827 0 002.327 2.694c0 .443.72 2.233-.148 1.421 0-.148.258-.203.092-.498a2.62 2.62 0 001.016 2.767c-.683.13.739 2.178-.259 1.532.499 1.199.739-.203 1.238.83.258 2.104 3.01 6.458 5.54 9.226-.129-.148-.333-.701-.222-.72 1.57 2.768 2.235 6.975 4.617 8.026.258.886-.72-.258-.351.72.129-.111.48.406.351.609-.166-.221-.314-.277-.443-.111-.388-.83-.462-1.365-.979-1.033 2.216 4.299 5.115 9.576 7.054 13.266.443.831 1.348 1.384 1.108 2.251.314-.092 0-.608 0-.904.459.383.891.796 1.293 1.237-.277.885 1.33 3.099 2.493 4.317 1.57 4.059 4.155 6.2 4.875 9.226 1.847 2.011 3.841 8.34 6.316 10.296.203.387.369.756 0 .83.628 1.347.979.092 1.607 1.439.461.683-.185.627.129 1.218.831.646 1.219 1.421 1.256.849.332.904 0 1.439.387 2.343.998.111 1.053 1.845 1.293 2.565 2.733 3.69 5.54 9.355 9.233 13.82-.461-1.07-1.662-2.952-.35-1.956-1.367-.794-1.995-2.805-3.251-3.303a7.38 7.38 0 00-2.437-3.912 5.172 5.172 0 00-1.108-2.269c.314-.092 0-.609 0-.904 1.846 1.236 2.622 4.059 4.635 6.698a45.442 45.442 0 00-4.709-8.857c.351-.129.462-.443.185-1.015-1.681-.775-4.414-6.753-4.673-8.432-1.551-1.974-3.416-3.69-3.508-5.757-.111.609-3.066-3.21-2.438-3.911.222-.167.554.793.794.719-.295-.959-1.846-2.066-1.514-3.284-1.644-.24-2.752-5.37-4.894-6.495-.277-.941 0-1.273.462-1.218-1.09-1.144-1.182-1.531-2.678-3.303.61-2.361-4.413-7.38-4.063-9.76a158.036 158.036 0 009.825 14.761c-1.293-1.642-1.625-4.078-3.121-4.742.979-.296-1.034-2.583-.48-3.174 1.163 2.657 4.598 6.661 4.081 8.432.499-.295-.148-1.384 0-1.845 1.514 2.233 1.2 4.539 3.564 6.181-.628 0-.443.111-.498.794a56.632 56.632 0 013.951 7.214c.517 1.07.647 2.473 1.238 3.487.591 1.015 1.182 1.311 1.699 2.27.517.959 1.255 3.377.831 2.454a11.329 11.329 0 002.622 4.225c-.665.314 1.643 2.602.886 2.86.702 1.107 1.256.849 2.013 2.491a2.658 2.658 0 00.388 2.344 33.426 33.426 0 015.06 8.136c.185 0 .351-.332.591 0 1.514 2.528 3.582 4.171 3.416 6.274 1.404.535 1.422 2.454 2.124 3.69.702 1.236 3.693 4.355 2.715 5.037.424.351.775 0 1.255.831-.517.166 0 1.07.167 1.642 1.551.184 2.437 4.041 3.564 4.853.664 3.395 3.693 5.682 5.023 9.041-.204.184-.499.313 0 .922.258-.332.203-1.088.849-.203.552.962.957 2 1.2 3.082.314-.277 0-.905.721-.093.258.868 1.606 4.595 2.345 4.429a101.21 101.21 0 005.688 9.871c-.388.904 1.846 3.469 2.567 5.148.424.959.129 1.568.572 2.657.443 1.089 1.847 2.786 2.493 4.318 1.607 3.339 2.419 4.096 4.137 7.509-.277.148-.684-.941-.942-.627.646 1.052 1.145.83 1.846 1.845-.092.886 2.18 3.69.924 3.266.905 1.845 1.551 1.052 2.437 2.601.388.757-.129.905.499 1.846.443 0 .905.406 1.459 1.55-.111.276 0 .553-.406.313 2.936 3.524 2.382 4.853 4.395 8.635.314-.35.628-.608 1.071.517-.702 0 .646 2.786 1.016 4.096.646-.147-.85-1.697 0-1.734.461 1.199.387 1.679 1.2 1.753 0 .572-.591.24-.129 1.42.35-.332.701-.572 1.2.425-.536 0-.092.701-.499.812 3.491 4.059 5.965 11.07 10.231 17.085 1.422 2.971 3.25 7.75 5.374 9.669a67.483 67.483 0 005.688 9.89c-.001.882.343 1.73.96 2.362-.24-.517.203-.222.462.092.075.659.192 1.312.35 1.956.296 0 .628.461.979 1.033-.554 1.845 2.53 2.491 2.752 5.443 2.991 2.602 5.171 10.351 8.218 11.956-.536-1.439-1.626-.941-1.681-2.269 2.622 1.07 3.306 4.539 6.039 7.842.203-.129.221-.369.24-.609a9.427 9.427 0 012.567 5.129c1.939 1.292 3.453 6.274 5.281 8.857-.443.517 0 1.107.536.922 0 .462-.61.609-.444 1.218 1.385.277 1.958 4.392 3.546 4.853.111 2.066 1.847 4.133 2.53 6.052.96.092 2.382 2.934 3.084 4.336.277-.129.092-.572.351-.72.462 1.089.72.388 1.108.941 1.237 1.643.591 2.159 1.643 3.192-.24-.387-1.034.203-.387.296.923-.665 2.714 2.122 3.453 4.022.443-.627.499 1.199 1.163 1.347.388-.314 0-1.07 0-1.734a1.392 1.392 0 01-.757-.314c-.48-1.402-.369-2.399-.831-3.783.462.812.961 1.846 1.33 1.643-1.625-2.805-2.142-3.395-3.693-6.071.517-.166-.111-1.088.147-1.421-.702-1.051-1.292-1.199-1.957-2.085 0-1.623-2.272-4.483-2.623-6.863-.904-1.108-2.456-2.307-1.957-3.396-.48-1.014-.831-.553-1.293-1.254-.461-.701.794-.48.462-1.2-.443.166-.683-.811-1.422-1.144.166-.904-.739-2.527-.351-3.284.665.794 2.235 2.915 2.179 1.458-2.548-.683-4.838-5.868-3.989-7.602-.646-1.089 0 .996-.591 0s-.48-1.974.185-2.362l.72 1.236c1.459-.701 0-2.62-.923-4.594 1.847.332 2.493 3.247 4.007 6.273.739.166.37-.332.314-1.107 1.847 1.624 2.179 5.702 4.358 6.883a22.282 22.282 0 01-1.2-3.063c3.047 5.535 4.155 8.413 7.387 13.875-.222 0-.517-.332-.757-.314.812 1.274 1.495 1.292 2.326 2.676-.129.166-.424.24-.221.627.24-.092.48.591.517.923.591 0-.388-1.163 0-1.329 1.68 1.513 2.364 4.281 4.303 6.495-.093.812.775 2.27.923 3.266.831 0 .665-.941 1.625.129-.277 1.033 0 2.879-1.625 1.199.295.517-.277.443 0 .923.665-.609 1.607 1.458 2.493 2.989.462-.683 1.847 1.55 1.514 1.956.443 0 .924.406 1.478 1.55 0 1.716-1.164-.314-1.478-.222.573.775 1.238 2.584 1.736 2.676-.886-1.974 1.09 1.384.813-.591-.333-.664-.462 0-1.127-.941.425-.535.961-.11 1.533.646.443 1.2-.425 1.845-.499 2.122.628.609.887 2.362 2.032 2.897-1.219-1.255-1.847-3.801-.794-3.377.775 1.237-.277.794 0 1.31.277.517 2.086 2.565.849 2.473.942 1.181 1.164.793 1.293 0 .886 1.421.258 1.605-.314 1.125.572.775 0 .812.443 1.44.776.406.443-1.071 1.071-.812.333.664 0 .885 0 1.328.739 1.034 1.385 1.2 2.179 2.786-.572 1.292 1.108 1.938.961 3.691.313-.296 0-.904.72 0 .332.664-.333.664 0 1.328.314-.295.609-.553 1.015.111 0 0-.129.166 0 .406-.24.147-.554-.701-.757-.314 2.623 3.58 3.14 4.336 3.546 7.51.849 0 1.643 1.974 1.847 2.97.277-.572.701.185 1.034.13-.997-1.403 0-1.015.314-1.126-.444-1.273-.924-1.587-1.33-2.971-.388.388-.96-.867-1.422-1.144a4.256 4.256 0 000-1.734c-.388.111-1.736-1.845-1.699-2.27.499 0 1.219 2.307 1.607 1.44-1.071-1.2-.554-1.439.221-.591a63.279 63.279 0 00-4.081-7.103c.222-.406 1.016.332.979-.296-1.034 0-1.274-2.712-2.031-4.207.295.443.609 1.163.849 1.126.148-.738-.554-.849-.314-1.532.296.443.24-.129.092-.516-.701-.185-.683.129-1.163 0-1.422-2.749-3.435-7.104-2.696-9.004.332 1.568 1.847 2.269 2.05 4.207.24-.369.609.35.849-.203-.868-2.049-1.625-3.322-2.493-5.646.388.202.517.092.222-.609-.185.092-.369.147-.628-.406.406.203.536.092.24-.609-.185.35-1.256-1.107-1.034-1.439 1.145 1.845.997-.333 1.976.738.831 1.439-.351 1.383.351 1.937-.148-.48.554 0 .166-1.015.351.425 1.477 1.273 1.385 2.048-.665-.443-.794.443-.443 1.237 0-1.071.646-.886 1.071-.812.794 1.42 1.976 3.099 1.551 3.69-.332-.351-.609-.369-.886-.221.424 1.254.554-.167.923.627.295.443.609 1.162.849 1.125 0-.848-.978-1.144-.609-1.734.499 1.144.868 1.033 1.367 2.048-.444.221 0 1.015-.444 1.218-.424-.978-.72 0-.72.092.185-.221 1.367 2.122.942.627-.148.093-.48-.406-.351-.608.296.498.462-.111.739.313.277.425.572 1.384.498 1.845-.221.166-.572-.812-.812-.738 0 1.107 2.622 2.067 1.643 3.192-.332-.387-.757-1.716-1.015-1.439.147 1.329 1.2 2.159 1.551 3.69.258-.313.554-.295.886.222-.387.295.166 1.624.813 2.048 0 .886-.591 0-.499.812.443-.111 1.33 1.623 1.459 1.55-.203-.388-.369-.757 0-.812.554.369.333.867 1.053 1.845.628-.148-.517-1.495-.351-1.937.886 1.845.591 0 .591 0 .942.369.757 1.845.517 2.251.332-.738 1.477.239.905-1.107-.813 0-.425-1.311-1.515-1.956.37-.148.462-.443.185-1.015-.702-.554-.277.941-1.034-.111-1.219-2.731.979-1.753 1.847.332-.148-.978-.185-.812-.924-1.956 1.034.702 0-.83 0-1.328.739.553 1.699 3.21 2.364 3.1a40.354 40.354 0 01-2.53-4.742c1.422.719 2.364 3.432 4.044 5.369-.35.148-.461.443-.184 1.015.683.535 1.495 2.214 2.179 2.786-.48.609.812 2.214 1.163 2.675 0-.35.979-.774.129-1.42.407.59-.424.221-.572 0a3.421 3.421 0 00-.665-.831c.388-.904-.831-1.716-.572-2.657-.296.13-.111.572-.37.702-1.422-3.561-2.049-4.355-3.01-6.569a15.348 15.348 0 01-3.693-6.476c-.314 0 0 .719-.406.295.129-.96-.794-1.624-1.478-2.879.185-.313.536-.535 0-1.328-.424.904-1.237-1.144-1.034-1.439-.129 0-.258.184-.443-.111.203-.646 1.348 1.107 1.034.129-.332.111-.812-1.347-1.108-.941a.921.921 0 01-.185 1.015c-.48-.812-.96-1.642-1.421-2.473-.204.849-.924.24-.407 1.624.388-.111 0-.775.48-.793.499.978 1.607 2.694.887 2.86.369-.388 1.643 3.69 1.643 1.845.292.423.447.925.443 1.439-.332.498-.738.258-1.108.388.291.696.513 1.419.665 2.158-.295-.516-.48.093-.757-.332-.277-.885-1.145-.978-.905-1.531.277-.166.684.941.942.627-.554-.959 0-1.199-.979-2.362-1.034 0-3.804-4.465-2.474-4.317-1.053-1.163-1.441-1.993-1.219-.425-.388-1.365-1.68-3.21-1.847-2.583.24-.221-.498-1.088-.129-1.236.369-.148.979 1.845 1.293 1.255.369-.332-1.33-2.03-.979-2.362.425.83.665-.148 1.126.922-.794-.405-.203.794.444 1.44-.573-.388-.499.313.129 1.236 0-1.181.295-.941 1.163 0-1.052-1.845-1.846-3.82-2.751-5.535.277.664-.85-.812-1.071-.517-1.533-2.233-1.238-3.229-2.77-5.443.701.701.258-.96.868-.203-.462.221.978 2.675 1.145 2.675-.185-.406 0-.295.277-.203-2.106-2.657-.776-4.354.572-1.328a.754.754 0 00-.351.719c.443.572 1.016 2.307 1.33 1.643-1.588-2.233.221-1.274-.351-3.266-.277-.332-.517.516-1.2-.425 0-.922.923-.276.757-1.014-.813-1.015-.868-.093-1.33-.314-.609-1.255-.702-2.473.314-1.126a3.187 3.187 0 01-.628-1.734c.24.406.406.092.628.406 1.754 3.21 2.844 5.424 3.86 7.712-.388-.424-.499-1.531 0-.811.383.659.61 1.398.664 2.158.481-.498.37-.129.794.72.296-.129.093-.572.351-.72 1.09 1.938 2.346 3.211 2.364 4.429-.923-.738-.72.904-.72 1.42-1.681-1.752-2.567-5.295-3.693-6.587 0 .812.886 2.233.757 2.971-1.275-2.288-.942-3.487-1.681-4.927-.665.646 0 2.141.203 3.377-.517 1.052-1.68-2.472-2.899-2.694a14.489 14.489 0 003.472 4.023 11.374 11.374 0 001.514 4.612c.129-1.125-.351-.848.628-.904-.222-.83-1.016-.904-.72-1.236.498 0 1.126 1.421 1.606 1.458.067.744.401 1.439.942 1.956.314-.24-.48-2.196.573-1.329.314 1.55.314.461 1.2 1.845.443 1.126-.48.258.185 1.642.332-.479 1.643 1.052 1.643 1.845-.388 0-.628-.867-.591 0 1.09.48 1.348 2.141 1.847 1.661.314 1.642 1.182 1.698 1.699 3.598.554.148.314-.48.702 0 0 1.089 1.477 1.255 1.422 2.472-.222-.35-.481-.904-.665-.83 1.182 1.716-.536.332.166 1.642 1.293.129 3.933 4.798 1.847 4.299-.259-.701-1.219-1.845-.813-.719.24-.092.554.664.85 1.144a2.084 2.084 0 012.086 1.956c-.258-.111-1.311-.738-.978.295.738-.351.535 1.328.941 1.956.351-.757.85-.166 1.33.313 0-.313-.332-1.955.148-1.42.48.535.295 1.144.886 1.55l-.535.387c2.123 1.937 2.511 3.838 3.693 6.495.646 0 .628 1.162 1.163 1.347-.129-.314-.424-1.624 0-.923.887 1.273.296 2.196 1.33 2.971-.351.148-.462.461-.185 1.033.536-.35.905 1.31 1.035.111 0 .849.738 1.181 1.2 1.845.461.664-.997-.203-.628.904.813.351 1.847 3.414 2.973 3.506.111.756-.591 0-.48.812 1.459.59 2.031 3.173 3.693 4.742-1.846-2.38-2.788-6.532-4.93-8.23-1.847-5.664-5.651-10.24-7.812-16.237-.314 0-.092.72-.406.314-.85-1.365-.739-2.454-1.699-3.69-.776.184.683.941.277 1.125-1.071-.738-1.422-2.122-2.271-3.69.572-.129 0-1.937-.536-2.251.425.775-.406.406-.572 0-.222-1.107-1.275-1.605-.979-2.362.591.978 1.237 2.454 1.643 1.845a15.358 15.358 0 01-1.846-3.911c-.259.276-.573 0-.924-.628.148-1.568-2.049-3.358-2.77-4.114a7.363 7.363 0 00-.258-2.454c-.296 0 0 .719-.406.295a5.799 5.799 0 01-.518-2.251c-.794.461-.831-.812-1.957-2.067.222 0 .517.332.757.314-.517-1.089-1.847-2.731-1.847-3.487.222-.296.517.221.758.313 0-.387-.61-1.162-.13-1.236-.424-.443-.923-1.494-1.329-1.642 0 .757.701 1.993.258 2.454-.461-1.292 0-.756-.849-1.125.314-.48-.443-2.012.628-.923-.462-.812-1.108-1.845-.794-2.048a10.916 10.916 0 011.514 1.956c.111-1.071.683-.314 1.348.332a2.936 2.936 0 00-1.662-1.845c.295.701.166.811-.222.609-.147-.757-.757-.978-.609-1.735-.24.092-.443.48-.72 0a3.486 3.486 0 01-.259-1.125c1.293.239 2.382 1.623 3.564 3.524.277 0 .48-.867.85-.185-.185.129.184.628 0 .812-.314.628-1.145-.277-.628.904 1.699-.59 3.435 3.912 3.915 5.536.517.996 0-1.089.591 0a20.433 20.433 0 001.846 3.911c-.129.148-.424.222-.24.591 1.552.24 2.789 5.535 3.878 6.384-.203-.314-.387-.83 0-.406.647 1.07-.387.996.222 2.048.462 0 0-1.513.499-.812 0 1.033.24.406.849 1.144 0 .775.72 1.845.351 1.938 2.216 1.605 2.511 5.055 3.693 6.9-.461.443.204 1.642.573 2.657.572-.258-.61-1.679-.222-2.048a53.953 53.953 0 006.187 9.06c-.24.498-.628-.406-.887-.203.554 1.236.887.277 1.422 1.144.277 1.845.517 4.354 2.308 5.332-.24-.48-.701-1.107-.572-1.328.462.812 2.493 2.73 2.475 4.317-.351-.184-.665 0-1.072-.535a2.54 2.54 0 00-.443-1.439c-.332.48-.831-.554-1.2-.424.48 1.328.72.332 1.163 1.347-.351.313-.572-.314-.535.406.535.202 1.847 2.195 1.736 1.346-.13 1.255 2.086 3.045 2.086 4.632-.517 0-.554-1.845-1.163-1.347a12.34 12.34 0 001.422 2.472c.72-.221-.462-.535-.092-.83.48-.664 2.105 2.62 2.049 1.568-1.532-1.384-2.363-4.446-3.065-4.336 0-.959-.72-2.38-.48-3.155.628 1.126.554.83 1.736 2.675-.277.536 0 3.451 1.145 2.657-.721-.977-.647-1.439-.481-1.845.277 1.292 1.201 1.071 1.422 2.473.499-.628-1.366-2.768-1.846-3.082.184-.11.406.259.572 0a41.838 41.838 0 01-4.69-10.166c-.739.461.738 2.398.166 2.97-.185-.313-.332-.295-.499-.516.407-.369-.129-1.366-.831-2.473.517-.221.259-.959.277-1.531-1.699-.738-2.659-3.893-3.379-5.849.185-.129.425.443.628.406-.924-2.067-1.607-3.174-2.235-3.192.351 0-1.403-1.698-1.108-2.251.185 0 1.127.941.72-.093-.701-.221-1.532-1.697-2.363-3.099a1.323 1.323 0 00.147-1.421c-.72-.738-.258 1.107-.997.277.129-1.126-1.459-2.805-1.311-4.3-.259.443-.554.24-.942-.627.203 0 1.238 0 .536-.387-.351.609-1.662-2.104-1.238-2.159 1.33 2.546 1.367.443 2.715 2.38-.148.092 0 .369 0 .498s-.665-.719-.886-.203c.757 1.476.369 1.642 1.422 2.454 0 .757.369 1.255-.333 1.126.61 1.181.979 0 1.57 1.033.591 1.033.295 1.089.923 1.956l-.406.295c1.182 1.421.369.757 1.662 1.845.517 1.366.277 1.845 0 2.251.443.535.702-.627 1.163 0a15.54 15.54 0 011.995 3.801c-.222.166-.573-.793-.813-.719l.721 1.236c.535-.148-.001-.904.664-.517-2.271-3.044-2.954-6.402-5.152-8.949a.808.808 0 01.499-.811c-.961-1.403-1.847-2.676-.942-.609-.333-.406-.647-.646-.979-1.034.591-.461-.295-2.214-.609-1.752.461-.388-.868-.812-.407-1.034.185-.756 1.219 1.329 1.958 2.067a16.301 16.301 0 00-2.789-4.521c1.238.738-1.292-2.269-1.015-2.767.24-.148 1.422 1.845 1.071.516-1.108-.867-1.718-2.528-2.955-3.1-.111-2.509-3.859-4.742-4.026-8.007-.664-.148-1.348-1.846-1.606-2.787.369 0 .978 1.846 1.255.831a4.11 4.11 0 00-1.846-1.845c-.314-.665 0-.886-.296-1.532-.24.185-1.366-1.218-1.163-1.347.203-.129.425.369.665.831.369-.203.147-.794 0-1.329-.222.092-.425.48-.721.092a11.8 11.8 0 00-.96-5.018c-.683.498-.775-2.012-1.422-1.144.591 1.125 1.958 2.583.758 1.642.166 1.107 1.274 1.734 1.274 2.564l-.259.203c-.979-1.549-.886-3.358-2.216-4.52.185.387.517.867.388 1.033-.166-.314-.314-.295-.48-.517-.296-.645.369-.627-.314-1.531-.203 1.476-1.736-3.229-2.715-2.399.148-.996-.406-.498-1.071-1.845.148-.092 0-.369 0-.516 0-.148 1.367 1.254 1.034.129-.424 0-1.089-2.048-1.477-1.55.388.424.517 1.531.092.812-.812-1.07 0-1.993-1.145-2.676.148.369.203.904-.092.517a17.781 17.781 0 00-2.05-4.207c.647.683 1.367 2.011 1.958 2.067a4.021 4.021 0 01-1.016-2.768c-.628 0-.24 1.291-.979.277.333-.388-.831-1.845-.535-2.251-.166.904-1.293-.517-.979.295.979.535-.222.461 0 .812.148-.296 1.2 1.531.905 1.55-.406-.831-1.551-2.03-1.293-1.237.333-.221.61.997.388 1.015-.665-.424-.443-.922-1.071-1.845-.406-.111.092 1.255-.536.406a27.69 27.69 0 00-2.917-5.757c.941.812-.407-2.029.443-1.218.258.978 1.052 2.842 1.847 2.989a16.58 16.58 0 01-2.752-5.535 10.772 10.772 0 011.847 3.912c.701-.628 1.163-.129 2.16-.277-.461-1.052-1.643-1.956-1.477-1.55.277.904 1.089.572.849 1.126-.461.166-.997-.185-1.569-1.034 0-1.014-.628-1.365-1.145-2.675.812.092-.185-.996 0-1.329.591.406.461.775.886 1.55.702-.885-.683-1.236-1.237-2.158a.57.57 0 01.72 0c-.351-.554-.683-.978-.979-1.034.61 1.513-1.329.628-2.013-1.162 0-.683-.129-.83.499-.794-.314-.608-.554-.572-.849-1.144.535-.276-.333-1.494 0-1.845-.832-1.07-.831-1.494-1.459-1.55-.24.572.609 1.163.424 1.421-.184.258-1.348-1.162-1.2-1.753.462-.295 1.164.277.462-1.217-.314 1.236-.351-.388-.942-.628 0 .664.221 1.421-.406 1.642a31.71 31.71 0 01-1.681-3.598c.61.683 1.274 1.993 1.847 2.159-.296-1.734-2.29-3.432-2.272-4.926.425 1.642 1.072 1.07 1.847 1.845a1.852 1.852 0 00.296 1.531c.757-.295.443.259.849 1.126.259-.277.573 0 .942.627a6.48 6.48 0 00.48 1.845c.314-.609-.166-1.845-.129-2.546-.333.535-.794-.314-1.201-.443-.369-.738 0-.996-.166-1.624-.314.351-.646.314-1.071-.516-.425-.83.72.24.351-.72-.295.295-.702-.166-1.071-.516.332-.462-.425-2.288.24-1.846-1.016-1.31-2.752-2.989-2.715-5.055.462.48.185 1.347.702 1.236 0-.166 0-.424.148 0 .462.701-.72.277.129 1.236.905 0 2.087 2.38 3.103 3.395-.481 0 .11.849.129 1.237.111-.665 1.163 1.199.72 0-.812-.203-.24-1.034-.757-1.643-.794.166-.979-2.232-2.216-3.192.24-.11.425-.479.72-.092.296.388.351 1.421.702 1.236a11.087 11.087 0 00-1.108-2.269c-.222.221-.48 0-.794-.72-.203.646-.407.554-1.034-.129.332-.461.96.332.498-.812a5.885 5.885 0 01-2.585-1.144c.628 0 0-.738.166-1.033.185.221.369.609.499.535-.979-1.347.738.166.184-1.033-1.163.24-.794-.849-2.05-1.55.573 0 .425 0 .351-.72.961 1.642.167.24.591 0 .185.314.314.277.48.517-.646-.222.407 1.605.591 1.328-.35-.719.573-.775.794-.59-1.034-1.199-1.514-2.067-2.271-2.288-.665-1.458-1.33-2.86-.425-2.749.462.756.13.959.296 1.531 1.071 1.033 1.846 2.288 2.622 2.897-.702-.701.092-1.292.369-.72.351 1.071.665 2.694 1.108 2.27-.461 1.07 1.016 2.897.518 3.579.554 1.126.96.812 1.44 1.144-.333.277.443 1.311.48 1.846-.591-.425-.314.59-.314 1.107.425-.259.979 2.343.831 1.144a5.3 5.3 0 01-.258-1.126c.498 1.015.886 1.052 1.348 1.642.517-.221-.591-1.513.258-1.531.307.544.519 1.137.628 1.753-.499-.683.203.996-.185 1.014a22.048 22.048 0 011.847 3.082c.739-.48-.72-1.439-1.33-2.971 1.035-.775-.554-3.284 0-4.391-.738-.941-1.126-.443-1.2-1.753l-.683.498c.498 1.033.812.388 1.329 1.661.111.498.536 1.236.314 1.531-.517-.812-.831-.959-1.68-2.269.554-.203-.72-1.624-.351-1.938-.757 1.107.979 3.026.776 4.687a15.66 15.66 0 01-1.681-6.237c-.351-.553-.111.333-.443-.11.148-.111-.129-.665-.351-.609.406.553.554 1.845.129 1.218a14.617 14.617 0 01-.886-2.86c.332-.129.794 1.051 1.126.922-.203-.498-.258-.922-.443-1.439-.295.185-1.366-.203-1.292-1.236 1.255 1.697-1.459-3.248-.13-2.547-.517-.774-.923-.553-1.514-1.955.997.313 0-.609 0-1.347 2.161 3.247 5.134 7.971 4.801 9.668 1.256 1.845 1.625 2.805 2.438 3.912.185-.148.388 0 .591 0-.628-1.07.185-1.144-.222-2.048-.277.498-.443.867-.812.59-.351-.885-1.385-1.384-1.237-2.159a6.02 6.02 0 011.2 1.753 4.753 4.753 0 00-1.145-3.985c.425.793.886 1.605.48 1.845-2.124-4.17-5.54-8.728-4.118-10.167-.85-.221 0-1.845-1.108-2.269 0 .406.609 1.181.129 1.236-.923-1.458.166.406-.406.295l-1.071-1.845c-.628.332.406 1.845 0 2.233-.831-2.491-1.145-7.233-2.881-6.661-.111-.222-.24-.425-.351-.628.111-.645 1.09.499.665-.498a1.531 1.531 0 01-1.108-.941c.628-.406-.979-1.402-.979-2.343 1.311.738 2.678 3.321 3.786 5.535.185 0 .406.185.628.425.849.166 0-1.845.757-1.015 0 .83-.092.48.535.922a4.445 4.445 0 00.887 2.879c.812-.388-.628-1.107-.48-1.845 2.437 2.601 2.271 4.539 4.265 7.38.832 0 1.293 1.513 1.847.849-.332.72 0 1.974-1.089.793.48 1.144 1.643 1.956 1.44 1.144-.369-.406.72.443-.129-1.217.593.405 1.09.934 1.459 1.549 0 .757-.351 0-.665.499.332.763.746 1.487 1.237 2.158.591.646.148-1.014.85-.203.085.912.277 1.81.572 2.676 1.699.886 2.641 3.912 3.823 5.978-.407 0-.647 1.181 0 1.31a2.007 2.007 0 01.277-1.513c.406 1.273.295 1.642 1.274 2.565-.72.48.905 1.568.72 2.565.277 0 .48-.886.85-.203l.35.627c-.443.443-.978-.092-1.44.184.48 1.311.646-.387 1.127.923.517 0 .092-.683.498-.793.628 1.439 2.032 2.675 2.216 4.502.684 0 .96 1.07 1.459 1.568.185.554-.702.406 0 1.31.222-.258.499.129.72 0-.203-.406-.387-.775-.092-.83 1.496.277 2.493 3.69 3.343 5.535.203.425 2.326 2.528.794 2.048.609.701 1.366 1.845.664 2.159a7.389 7.389 0 00-.812-2.066c-.388.313-.905-.443-1.33-.314.905 1.328-.646-.203.259 1.125.591.923.221-1.328.979-.295.11.517.553 1.236.313 1.532-.277-.406-.498-.129-.757-.314.259.627.905 2.491 1.293 2.565.129-.351-.85-1.439-.628-1.735.222-.295 1.477-.147.443.111.61 1.162.942-.295 1.607 1.458-.148.276-.609-.222-.406.295.572 1.015.295-.369 1.089.517.165.427.165.901 0 1.328 1.016.83 1.847 3.93 1.847 1.845.305.537.512 1.125.609 1.735-.628-.812-.388-.203-.701.092a28.485 28.485 0 012.031 4.207c.554.203 0-1.163.535-.388-.295.332.499.388.721 1.236-.167.203-.573.259-.37.702.757 1.254 1.847 2.638 1.515 3.284-.333-.388-.758-1.716-1.035-1.439.314 1.531 1.57 1.845 1.847 3.081l.536-.406c.683 1.31 1.846 2.011 1.015 2.786-.424-1.494-1.846-2.158-2.013-1.162.545.793.98 1.655 1.293 2.565.609.627.092-.849.72-.093.37 1.237 2.697 3.506 3.158 5.148 0-.498-.812-1.679-.351-1.937 1.662 1.845 2.216 5 3.287 6.384-.11-.59-.572-1.402-.498-1.845 1.015 1.31 1.329 2.971 2.585 5.129-.388-.369-.702-.129-1.034-.11.702 1.568 1.2 1.217 1.847 1.753-.517-.739-.794-.942-.739-1.643.222.406.388.111.609.425a7.802 7.802 0 01.758 4.28c1.108-.258 0-1.992 0-3.062 1.218 1.365.757 2.343 1.957 3.395 0-.388-.905-1.477-.314-1.532-1.68-2.417-3.582-4.945-3.823-7.288.905 2.251.518.682 1.478 1.55.48.959.812 2.804 1.2 3.081-.111-.277-.092-.443 0-.517.85.739 1.164 2.916 1.422 2.473a1.412 1.412 0 01-.277-1.126c1.847 2.528 2.087 4.447 3.693 5.665-.775.867 2.789 4.65 2.032 5.535-1.847-3.063-2.512-4.742-3.915-6.79 0 .757-.813-.83-1.293-1.236.259 2.067 2.401 3.967 3.472 5.351-.166.147 0 .535-.222.609-.572-1.218-.997-1.163-1.551-2.362 0 .461-.739.517-.148 1.421.296-.129 0-.572.37-.701l1.422 2.454c-.573 1.291-.924.535-1.939.996-.203-.406 0-.554-.388-1.033-.887.867-2.032-.867-3.084-1.661.221 1.347 1.163.738 1.847 2.565-.185 0-.61-.314-.407.313.351-.479.942 1.495 1.256.831a3.187 3.187 0 01-.628-1.753c.24.406.406.111.628.424.683.904.351 1.107.628 1.845.148 0 .277-.203.443 0 .628-.221-.776-.977 0-1.31 1.607.738 2.031-1.125 3.269 1.975-.296 1.236.757 2.306 1.846 3.911-.166.148-.369 0-.572 0 .332.72 1.459 3.691 2.087 3.303.277-.277-.628-.646-.887-1.55.591 0-.406-1.144 0-1.328 1.681 2.564 1.625 3.136 1.164 4.004 1.643 2.897 2.086 4.612 4.247 8.727.554.203 0-1.162.536-.406.369 1.218.868 1.329 1.606 2.786-.388-.203-.517-.092-.221.609 1.034.683.387 1.845 1.329 1.642.388.831 0 1.2 0 1.735.351.184.665 0 1.034.129-.572-1.329-1.108-2.989-.627-3.063a10.35 10.35 0 01-1.847-2.989c1.256.406 5.152 8.082 2.53 6.052.344.5.6 1.056.757 1.642.351.185.665 0 1.016.111a1.84 1.84 0 01-.351-1.845c-.443-1.015-.757-.738-1.201-1.845.187-.125.365-.261.536-.406.628.922.406 1.494 1.034 1.439-.166-1.569-2.16-1.532-2.77-4.115.85 1.716.517 0 1.071.517-1.126-1.845-2.031-6.993.111-3.155.572-.111.185-.886-.166-1.642-.259.461-.554.239-.942-.628-.351 0-.573.978-.979.314-.406-.664-.812-2.03-1.57-2.38-2.179-5.536-6.038-11.477-8.919-17.178a11.334 11.334 0 011.422 2.472c.757-.609 1.219 1.384 1.477 1.55-.369-.96.684.886.388-.295 1.477 2.361 2.29 4.483 3.786 5.535-1.367-2.436 1.403.351.443-1.218-1.459-.572-2.493-2.841-2.973-4.834-.185 0-.351.332-.573 0 0-1.328 1.164.867 1.736 1.347-.443-1.236-.849-2.454-1.422-3.783a1.487 1.487 0 011.127.923c.517 1.255.166 1.015 1.108 2.27-.185.147-.388 0-.591 0 .48.941.849.719 1.348 1.66l-.683.498a9.23 9.23 0 013.065 3.008c-.886-2.177-.979-5.222-2.419-6.569.166-.295.277-1.55.757-1.015a4.446 4.446 0 001.459 2.879c-.185.111-.406-.259-.572 0 1.421 2.472-.351 1.753 1.181 4.391.536.369 1.016.388 1.57 1.052-.351-.812.591-.517.85-.203 0 .793.277 1.402.48.517.369 1.457 1.976 3.69 1.846 4.834-.314.24-.701-.24-.997.295a46.695 46.695 0 01-3.859-6.384.916.916 0 00-.185 1.015c.259-.277.572 0 .942.627-.166.498-.203.535-.684.498.462.757.905 1.476.628 1.753l-.72-1.236c-.72.406.37 3.007.979 3.69a2.026 2.026 0 01-.129-1.236c.295.406.517.351.794.72.591 1.291-.24.738-.13 1.439.739.369-.147.498 0 .812a1.53 1.53 0 011.108.941c-.166.203-.554.258-.369.701 2.715 2.14 2.013 5.406 4.949 8.229-.277.387.166 1.255.351 1.956.443-.462.314-1.31.665-1.845-.794-1.329-2.512-4.152-2.308-5.351.406.627 1.403 1.697 1.292 2.565.24 0 .443-.48.72 0 1.626 3.598 4.839 7.804 5.947 11.07-.333-.664.535-.535.314-1.125a5.055 5.055 0 01-1.995-3.801 55.72 55.72 0 01-4.524-7.215c.683-.645-.757-3.598 0-3.561-.406-.904-1.588-2.325-1.477-2.878.535.83.941.553 1.44 1.144a11.998 11.998 0 00-1.163-2.676c.35-.203.757.277.369-.701a26.706 26.706 0 01-3.952-8.524c.997-.166 1.847 2.398 2.659 3.303-.406-1.366.813 1.494.979 1.033-.443-.867.425-1.347.942-.701.517.646.314 1.328-.259 1.531.462.757.942 1.569 1.293 1.236-1.256-1.586.517-.867.129-1.42a1.594 1.594 0 01-.942-.628c.739-.682-.868-1.734-1.366-2.066-.148-1.255-2.973-4.023-2.973-6.163a7.09 7.09 0 011.551 2.362c.72-.111 1.514.609 2.364 1.845 0 .83-.351 0-.721.092.573.83 2.013 1.476 1.736 2.676-.314-.535-1.403-1.569-1.108-.941a26.192 26.192 0 014.045 4.04.702.702 0 00.369-.701c1.847 2.639 4.266 5.13 4.21 6.993.684.978 1.478 2.989 2.106 3.303-.518-1.162.129-1.679-.407-2.362a8.11 8.11 0 002.235 1.845c-.222.628 1.145 2.288 1.2 3.082-.24.498-.757-1.532-.979-1.033.924 3.893 4.857 9.041 5.854 12.915-.794-.406-1.163-2.989-2.05-2.878.351 1.402 1.404 2.86 1.847 4.724-.369.572-.868 0-1.422-1.144.794-.609-1.994-4.447-.258-3.783a8.46 8.46 0 01-2.345-4.428c-.407-.554-.665.147-1.127-.941.222-.277.517.221.776.332-1.552-1.255-4.303-7.381-6.187-9.078a.924.924 0 00.185-1.015c-.443 0-.96-.756-1.385-.738.794 1.052.295 1.218.48 1.845.258 0 1.367 1.236 1.2 1.845-.166.609-.664-.775-.941-.627.11.277.35.609.221.719-.166-.221-.351-.608-.48-.516.757 1.421 2.604 2.546 2.438 3.911-.517-1.254-.794-.258-1.238-.83a13.091 13.091 0 00-2.751-4.114c1.256 1.845.147 2.121.646 3.468-.868-1.014 0-.867-.628-1.734-.923.332-.646 1.458-.443 2.546-.388-.904-.628-.387-.942-.627.259.959 1.441 2.546.222 2.048.498.959 1.533 2.288 1.145 2.657-.61-.387-1.422-2.602-1.958-2.067 4.691 4.244 2.253 9.005 6.353 13.359-.868 0-.203 1.126 0 1.845a7.388 7.388 0 01-2.456-1.254c0-.775-.443-.775-.887-1.532-.277-1.052.591-.277 0-1.328a.702.702 0 00-.369.701 33.854 33.854 0 01-2.031-4.207c-.757-.166-1.238-1.052-1.478-.221 1.404 1.974 1.33 3.173 3.103 4.723-.702-.535-.887 1.974.221 2.048-.24-.48-.701-1.107-.572-1.328.129-.222.425-.48.72 0 .573 1.347 1.644 1.845.979 2.361 0-.535-.499-1.273-.85-1.144.61 1.108-.277.166.13 1.237a7.932 7.932 0 012.308 4.004l-.406.313c-.517-1.587-2.161-1.568-1.145-1.347a3.694 3.694 0 003.324 2.805c.554.793-.333.664 0 1.328.701-.332 1.588 1.2 2.364 1.753-.333-.443-.093-1.402.369-.701.812 2.122 3.232 5.646 3.546 7.491-.388-.092-1.016-.719-.536.406.979-.553 1.237 2.823 2.087 3.303.591-.111-.554-1.384.129-1.421.757 1.624 1.237.628 1.847 1.642a20.284 20.284 0 003.601 6.588c.166-.868-1.127-1.606-.85-2.455.573.314 1.053-.276 1.607.111a7.379 7.379 0 001.847 2.583c-.554-1.254-.573-1.845.35-.701-1.2-2.767-2.53-3.893-3.915-6.79a.698.698 0 01-.886-.221c.129-.369-.849-1.458-.609-1.735.24-.276 1.237 1.753 1.735 1.347-.406-.978-2.566-3.395-1.698-3.69l-.887-1.55c-.849.849-2.696-3.598-1.33-2.971-.701-1.549-2.234-3.69-1.458-4.206a12.599 12.599 0 002.973 4.834c-.277-.628 0-.849-.61-1.735-.24.48-.628-.442-.941-.627.258-.351-.647-1.458-.481-1.845.573 0 .13-.812.314-1.126a13.397 13.397 0 012.216 4.521c.61-.221-.904-1.845-.517-2.251.388-.406.554.793.794.72.13-.554-1.329-2.141-1.163-2.657.609.608 1.293 1.992 1.847 1.845.384 1.071.693 2.169.923 3.284.129-.996 1.44 1.125 2.419.849-1.366-1.126-3.231-2.823-2.973-4.835a13.621 13.621 0 01-2.585-5.147 3.949 3.949 0 001.735 1.347c.204-1.052-1.846-2.141-1.957-3.395.24.369.462.701.628.424-.48-.923-.868-.886-1.293-1.236-.424-.351-.221-2.048.591-1.329 1.662 4.207 4.063 7.381 5.54 11.809-1.625-2.233-2.068-5.535-3.693-6.07 1.182 1.199.72 2.306 1.736 2.675.517 1.476 0 2.122 1.052 3.174-.738-.978.167-.572.407-.296.271.809.598 1.598.978 2.362.831-.295 2.013 2.731 2.844 2.288-2.493-2.454-3.342-6.347-4.173-9.226-.683-.701-.24.941-.85.203a2.196 2.196 0 01-.129-1.236c1.2.425.406-.553.683-1.845 1.219 1.568 0 1.476.573 2.657.517.72 1.847 1.513 1.847 2.177-.185.129-.444-.461-.628-.424.184.517.24.922.443 1.439.258-.314.554-.295.886.221-.554.702-.628 1.735.222 3.359.295 0 0-.702.406-.296.296 1.274 1.311 3.026 1.459 4.207.757.259.794 1.421 1.68 2.27-.646.387 1.626 2.731 1.072 3.173.147 0 .295.148.48.517 1.569-.535-1.847-4.447-1.625-5.831.905 1.846.941.941.572 0 2.068 1.956 1.847 5.813 2.752 5.444.406.811.831 3.339 1.015 2.767-.591-1.587 0-.35.499-.793.111-.517-1.404-1.735-1.293-2.583.203-.111 1.367 2.158.997 1.033-.886-1.292-.72-1.273-1.514-1.956-.111-.572.222-.849.129-1.421-.387-.424-.609.554-1.071-.535 1.201-1.476-1.846-4.945-2.197-7.159 2.881 4.023 4.746 8.414 6.556 11.403-.167-.314 0-.553.277-.184.277.369.35.608.535.922a.775.775 0 00-.499.812c.998.978.444 1.55 1.016 2.768a54.757 54.757 0 015.54 10.48c.794 1.568 4.044 6.753 3.989 8.93.24-.092.443-.479.72-.092.665 1.716 2.863 6.68 2.881 6.68.019 0 .388-.609.72-.093.333.517 0 1.089 0 1.735 1.847.978 1.478 3.93 3.195 5.535-.148-1.956-1.182-2.639-1.311-2.362zm-41.144-72.107c.295-.978 1.846 2.362 1.551 1.033.812.148 0 .738.277 1.126-.536-.019-1.2-1.31-1.828-2.159zm-29.012-27.345a7.018 7.018 0 00-1.237-2.159c0-.59 1.348.923 1.958 2.067 0-1.661-2.383-3.691-3.287-5.056.295-.517.572-.369.498-.812.628.092.425 1.495 0 .923 1.2.424 2.456 3.524 3.213 2.897a18.398 18.398 0 001.201 3.081 4.157 4.157 0 011.994 2.472c-1.588-.59-2.622-2.564-4.34-3.413zm8.274 24.706a10.907 10.907 0 00-1.644-3.192c.831.591.757.941.683-.498.647.092.443.59 1.164 1.347-.517.719-.148.83.517 2.251-.203.351-.48.055-.72.092zm-17.396-34.227a28.672 28.672 0 001.957 3.395c-.812-.443-2.678-2.583-1.957-3.395zm-44.321-73.694c.48 0 1.016.461 1.607 1.457l-.536.388c-.387-.609-.738-1.144-1.108-1.845h.037zm-7.128-5.72c-.295-.554-.535-.517-.849-1.126a4.273 4.273 0 00-1.496-3.284c1.274.295 1.496 2.067 2.659 3.303.111.535-.055.922-.351 1.107h.037zm5.189 13.359c-1.089-1.44.13-1.31-.701-2.565.627.387 1.311 2.38.664 2.565h.037zm15.9 43.286c-.461.332-1.071-.978-1.569-1.051-.185-.812.461 0 .498-.812.037.867.554.83 1.034 1.863h.037zm-3.859 12.916c-.407 0-.924-1.402-.222-.719-.48-.978-1.256-1.31-.923-1.956-.222-.351-.388 0-.573 0a5.177 5.177 0 00-1.071-1.845c.48-.388 1.053 0 1.644.535a13.223 13.223 0 01-1.237-3.488c-.628-.756-.001.72-.702.093a6.828 6.828 0 01-.665-2.141c.812.868 2.105 1.845 1.847 2.971.461.738 1.2.72.886 1.55.702-.277 1.847 2.749 2.198 1.458-.517-.868 0 1.014-.628-.406.572 0 .129-.812.314-1.126a14.767 14.767 0 01-2.623-5.535c-.221-.332-.387 0-.572 0-1.496-3.524-3.047-5.333-3.472-8.008.443-.83 1.163.83 1.699.941.314 1.255-.905-.517-1.256-.83 0 1.162 2.106 2.564.887 2.859.388.794.646.499 1.034 1.44s0-.591.535-.388a5.992 5.992 0 001.552 3.69c.295-.442 0-1.254-.222-2.048.573.48 1.662 1.846 1.422 2.473.406.627.111-.72.72-.092a25.343 25.343 0 011.274 3.893c.684.738-.277-1.181.333-1.107.609.074-.37.996.646 2.14-.222 0-.517-.387-.757-.314-.129.628 1.256.591 1.2 1.846-.941-.203-1.662-1.071-2.4-2.178.277 1.163 1.071 1.679 1.643 3.192.277-.516.111-1.513.591 0 .351-.203.683-.424.314-1.107.646 1.569 2.087 2.547 2.475 4.318-.868-.129-1.201-2.602-2.179-2.786-.204.443.812 1.457 1.034 1.439.221-.019.11.332 0 .406-.111.074 0 .221 0 .406a8.51 8.51 0 01-1.515-1.956c-.35.203-.129.793-.314 1.125.831 0 1.847 1.384 2.771 2.787.406-.166-1.127-1.643-.315-1.532.61.794.278.941.758 1.642.184-.313-.591-1.273 0-1.328.628.793.277.941.757 1.642-.406 0-1.071-.369-.979.295.462.775.794.277 1.164 0 .443 1.015.757.738 1.2 1.753-.203.24-.646-.277-.406.295-.37.203-.647-1.015-.721-1.236-.147.554-.221.314-.628.904-.48-1.513-1.606-1.845-2.345-1.753a3.98 3.98 0 01.259-1.531c-.831-1.845-1.33-.72-2.179-2.786 0 .516-.444.719.166 1.642-1.219-.904.111-2.51-1.237-3.487 0 1.125.221 4.243 2.308 5.332.303.815.348 1.704.129 2.546-.628-2.306-2.918-4.834-3.693-4.336a8.239 8.239 0 00-.794-3.376 9.615 9.615 0 00.831 3.874l.037-.092zm-3.694-17.104l.721 1.236c-.591-.387-.37.222-.684.498a1.383 1.383 0 01-.074-1.642l.037-.092zm23.287 52.789c-.185 0-.203.24 0 .517-.185 0-.443-.554-.628-.425-.609-.812.093-1.125.591 0l.037-.092zM275.64 297.346c.546.463 1.041.983 1.477 1.55-.296.535-.776-.941-1.034-.129-.351-.609.148-.664-.443-1.421zm.665-38.876c.535-.351 1.846 3.063 1.514 1.955.498 0 .535 1.347.314 1.532-.314-.185-1.034-1.495-.628-1.734-.222-.351-.388 0-.573 0a8.744 8.744 0 01-.627-1.753zm4.653-1.273c.462 0 1.237 1.845.628 1.752-.72-.904-.332-1.125-.628-1.679v-.073zm-.886-26.238c.591.406.461.756.886 1.55-.24 0-.498-.203-.794-.738-.148 0 0 .221 0 .406 0 .184-.203 0-.314-.203l-.351-.609c.591.313.185-.166.573-.406zm51.965-7.86c.35 1.294.871 2.535 1.552 3.69-.444.24-.148 1.845-.942.701-.443-.941 0-1.273.092-1.845-.351-.609-.702-1.236-1.071-1.845.277-.129.074-.572.369-.701zm65.447 70.317l.72 1.237c-.591 0 .388 1.144.314 1.531-.554-1.033-.757-.185-1.644-1.845.536-.166.333-.683.61-.923zm124.669 281.585c.628.184.924 1.734.499 1.845-.886-1.089-.055-1.033-.499-1.845zm45.244 90.245c-.424 0-.979-.941-1.477-1.55.535-.498 1.182.775 1.477 1.55zm-6.094-12.233c-.849-.738-.849-1.532-1.422-2.473.186-.125.365-.26.536-.406.581.848.89 1.852.886 2.879zm-10.729-11.071c-.702-1.458-.185-1.015-1.293-2.565.203-.83.684.997.942.628.259-.369-1.33-1.845-.48-1.845a13.024 13.024 0 001.847 3.081c.037 1.033-.665.387-1.016.793v-.092zm-1.847-4.41a6.609 6.609 0 00-.923-1.956c.573-.055 1.976 1.79.997 2.048l-.074-.092zm1.441-4.151c-.24.572-1.515-1.845-1.33-1.661.388-.572.96 1.163 1.404 1.753l-.074-.092zm-1.625-5.849c-.665-.13-1.404-2.067-1.459-2.879.886-.424 1.551 2.344 1.551 2.971l-.092-.092zm-7.664 4.391c-.572-.535-1.201-2.362-.887-2.878.167 1.273 1.533 2.158.961 2.97l-.074-.092zm-7.904.59c-.739-.498-.702-.147-1.126.406-.942-1.642-.61-2.251-1.736-2.675-.462-1.476.129-3.69 1.44-1.513-.849.148 1.496 2.786 1.496 3.875l-.074-.093zm5.3-6.144c-.388.092-.942-1.476-1.385-2.066.665-.277 1.477 1.494 1.459 2.158l-.074-.092zm-4.857 3.69c-.24.369-.738-1.457-.923-.608a4.938 4.938 0 00-.757-1.643c.701-.959 1.643 1.495 1.754 2.178l-.074.073zm6.962-8.266c.185.923-.997-1.845-.886-.221-.554-1.163-.314-1.845-1.163-2.657l.406-.314a9.652 9.652 0 01-1.607-2.768c-.166-.295-.295-.11-.443-.11-.443-.997.461 0 .535-.406l2.494 4.336c-.739.369.073 1.107.738 2.14h-.074zm-4.026 1.679a4.58 4.58 0 01-.757-1.642c.37-.221.776 0 1.256.83a.777.777 0 01-.425.812h-.074zm-1.292-2.564c-1.164-.978-2.253-4.908-3.823-5.979a12.879 12.879 0 01-.738-2.97c.517-.185.886 1.236.738 1.642 1.588.996 2.087 3.487 3.306 5.056-.388.664.591 1.199.591 2.251h-.074zm-3.195-4.226c-.388.572-1.496-1.974-1.57-2.38.813-.074.794 1.273 1.718 2.38h-.148zm-4.598-2.306c-1.034-1.329 0-.591 0-1.845 0 .535.757 1.531.794 2.066-.222 0-.499-.516-.351-.627-.222-.277-.609 0-.369.406h-.074zm.498-2.14c-.258.258-.683-1.052-1.015-1.458-.185 0-.203.258-.093.517-1.292-1.477.961-.628 1.182.941h-.074zm-.387-3.691c-.444-1.384.646 1.532.314.222.406.35.627 1.605 1.108 2.251-.185 0-.444-.48-.665-.831-.222-.35-.388 0-.628-.406-.369-.092.554-.092-.055-1.236h-.074zm4.93-2.786c-.332.591-.775 0-1.163 0-.462-.996-.61-1.845-.092-2.14l1.255 2.14zm-2.327-1.365a33.135 33.135 0 00-2.659-7.27c1.496 1.421 2.068 4.521 3.38 5.867-1.035-.442.332 1.274-.647 1.403h-.074zm-16.73 4.982c-.204 0-.407-.166-.591 0-.665-1.015-.961-1.846-.351-1.956a6.29 6.29 0 001.015 1.956h-.073zm13.314-12.566c-.443-1.162 0-.701-.942-1.956.517-.553 1.57 1.919 1.016 1.919l-.074.037zm-1.662.794c-.388.332-1.293-1.329-1.33-1.661.481.111.924.83 1.404 1.661h-.074zm-13.167 9.816a28.542 28.542 0 01-1.145-2.676c.185 0 .443.554.61.425-.314-1.015-1.404-3.229-.425-2.768.314.664 0 .886 0 1.328.702.72.683 1.292 1.57 2.362-.314.628-.739-.129-.813-.719-.628.184 1.182 2.011.277 2.048h-.074zm-.979-1.034a.875.875 0 01-.627-.424c-.85-1.513.147-1.845-.795-3.376.241 0 .573.885.813.719.591 1.476-.646.849.683 3.081h-.074zm-15.013 8.968c-.517.221-.646-.701-.85.203a6.88 6.88 0 00-.35-.628c.147 0 0-.203 0-.406.535.351.794-.055 1.274.831h-.074zm14.053-13.986c-1.071-.406-2.345-3.691-2.844-4.945 1.478.535 1.588 2.86 2.9 4.945h-.056zm10.397-9.964c-1.311.277-3.047-3.358-3.878-5.056.536-.516 1.219.572 1.847.849.923 2.011 1.606 3.008 2.105 4.207h-.074zm-26.574 18.931c-1.034-.184-2.382-3.34-2.622-4.225 1.071.295 2.382 3.69 2.696 4.225h-.074zm12.927-15.351c-.554.332 0 .295.388 1.033-1.108 0-.702-1.568-1.644-1.845-.203-.646.868.11 1.293.756l-.037.056zm10.175-9.337l-.535.406c-.85-1.144-.166-1.255 0-1.753.102.499.296.975.572 1.403l-.037-.056zm-11.08 7.805a5.319 5.319 0 01-2.013-2.472c1.201.11 1.164 1.328 2.069 2.472h-.056zm-14.976 10.702c-.351.221-.868-.83-1.33-1.642.369-.665.942 1.07 1.385 1.642h-.055zm19.999-16.606c-.314.295-.646.258-1.034-.111-.886-1.587.443-1.734 1.089.111h-.055zm-5.946-2.62c.942.313 1.625 1.845 2.271 2.269.443.978-.48 1.07 0 2.141-.868-.831-1.846-2.085-2.548-2.067.849 1.126 1.569 1.126 2.493 2.989-.296 0-.591-.203-.887-.221-.48-.701-.147-.849-.757-1.643 0 1.569-2.345-2.417-2.437-3.911.646 0 .591.849 1.2 1.753.277.424.462-.185.757.313.277-.258-.702-1.347-.942-1.955-.258-1.034.591-.277 0-1.31.444-.185.905 1.291.905 1.586l-.055.056zm-33.647 25.905c-.221-.092-.701-.719-.443-.11-.406-.148-.905-1.2-1.348-1.643.166-.978 1.403 1.606 1.071.517.425-.203.72 1.015.72 1.236zm30.581-27.677c.167.222.314.203.48.517.13-.295-.443-1.07.185-1.015 1.053 1.845-.554 1.698.923 3.266-2.308-2.38-3.305-6.735-5.817-9.761.13-.11-.11-.461-.221-.719.757.277 1.126.959 1.514.627.443.609.148.738 0 .923.536.609 1.034.645 1.644 1.845-.721 1.679 1.883 3.173 1.348 4.354l-.056-.037zm2.05-1.107c-.554-.313-.148.166-.535.406 0-1.421-3.121-4.631-3.066-5.646 1.533 1.144 2.53 4.262 3.657 5.203l-.056.037zm1.847-5.369c.111.609-.665-1.144-1.385-2.067.757-.535 1.348 1.421 1.496 2.104l-.111-.037zm-2.512 2.306l-.406.296c-.979-1.772-.166-2.362.517-.259l-.111-.037zm-34.754 24.245a4.726 4.726 0 01-1.847-1.236c-.535-1.125.406-.572.813-.609l1.034 1.845zm32.538-26.902c.72.554.444-.701.998-.276.498.756-.407 1.9-.998.276zm3.952-2.49c-.48.258-1.459-1.846-.923-1.956.413.596.725 1.257.923 1.956zm-38.448 25.997c.203.831-.535-.129-.221.628-.296.406-.868-1.846-1.145-1.347-.591-.775-.093-.831-.443-1.44-.351-.608 0 .536-.591 0a3.18 3.18 0 00-.407-1.014.589.589 0 00.72-.093c-.997-1.033-.757-.11-1.366-2.066.351-.222.849.83 1.33 1.661a3.518 3.518 0 00-.259-1.126c.886.48.369 1.624 1.459 2.878-.72-.221.351.96.923 1.919zm16.325-13.026c-.628.184-.536-.812-1.33-1.661.314-.646.831 1.089 1.33 1.661zm15.826-12.233c-.277.645-.776-.812-1.163-1.347.369-.185 1.071.498 1.163 1.402v-.055zm-2.696.664c-.296-.831 0-1.218-.831-2.454.942-.425 1.606 2.325.831 2.454zM476.3 589.78c-.147 0-.332-.313-.498-.516-.166-.203-.203.24 0 .498-.591 0-.536-1.089-.573-1.329.259.111.665.849 1.071 1.347zm20.628-31.256c1.034.664-1.256-3.174.425-1.624-.314-.572-.554-.535-.85-1.144 0 .259 0 .498-.221.609-.573-1.107-.998-2.546-1.7-2.251-.092-.959-.369-1.162-1.107-2.269.369-.683 1.034 1.549 1.477 1.549 0-1.125-1.034-1.679-1.034-2.767-.647 0 .48 1.07-.166 1.015-.628-1.107-.425-1.661-1.035-2.768.203-.83.684.996.942.627.259-.369-.868-.904-.757-1.642-.535-.701.185 1.31-.665.498a3.578 3.578 0 00-1.015-2.767.556.556 0 00.701-.093c-.498-1.125-.775-.147-1.237-.83-.388-3.487-3.176-6.107-4.358-9.558-.517 0-1.847-2.454-1.145-2.675-.868-.683-.739-.332-1.644-1.845.517-1.735-3.878-6.772-4.487-9.466.351-.332.739.129.794.738v-.516c-.96-.48-3.324-3.691-3.139-5.148a16.132 16.132 0 01-2.844-4.945c.314-.111.738.646 1.071.535a2.354 2.354 0 00.923 1.937c.203-.24 0-.756-.443-1.42a28.915 28.915 0 012.973 4.834c-.388-.24-.277 0-.388.295a1.843 1.843 0 01.739 1.642c1.422 1.07 3.896 7.713 5.134 5.905a18.7 18.7 0 003.601 5.24c0 .572.425 1.439.351 1.956.905.092 2.696 3.524 3.194 5.535.425.793.739.517 1.108.922 1.533 2.99 3.195 6.661 4.617 9.355-.498.388.203 2.38 1.422 3.801.332 1.31 2.216 5.905 3.693 6.901.776 1.218-.203 0-.35.701a18.924 18.924 0 012.659 4.631c-1.385-1.144 0 2.178.535 3.58a8.646 8.646 0 01-1.735-4.004c-.425-.369-.813-.314-1.293-1.255.148 0 .314.222.443.111a69.54 69.54 0 01-6.796-12.122c-.72-.812-1.551-2.787-2.179-2.787a53.063 53.063 0 005.023 9.042c-.203-.093-.406-.166-.591 0-.185.166 2.124 2.823.887 2.859 1.403.646 1.218 2.122 2.419 2.178.812 1.384 1.68 2.786 1.052 3.173-.628-.904-.406-1.42-1.071-1.845.357.842.551 1.743.573 2.657.277.222.517-.664 1.163 0a9.772 9.772 0 01.794 3.377c-.683-.498-1.422-1.661-2.087-1.956-.443-.627-.147-.738 0-.923a17.449 17.449 0 01-2.622-4.225c-.388.664 0 1.181-1.071.812-.609-1.679 0-1.55-.166-2.971.646.886 0 .867.609 1.753.333.443 0-.461.462.092-.185-1.992-1.994-2.232-2.493-4.317.277-.351 1.237 1.328.905 1.273zm4.136 10.167a5.549 5.549 0 01-1.514-1.956 3.337 3.337 0 011.496 1.956h.018zm-7.22 4.483a.919.919 0 01.462-1.218l-.37-.608c-.314-.425 0 .239-.406.295-.277-.628 0-.849-.609-1.735.184 0 .443.535.627.406.111-.535-.941-.812-1.385-2.066a7.95 7.95 0 012.752 4.133c-1.016-.48-.443 1.125-1.09.793h.019zm1.847-1.845c-.665 0-2.087-2.971-1.847-3.487.942 1.421 1.071 2.269 1.828 3.524l.019-.037zm4.875-4.52c-.296.424-1.478-1.587-.61-1.753.85 1.07-.055.904.665 1.789l-.055-.036zm-37.432 26.145c.27.413.469.868.59 1.347-.184 0-.443-.48-.664-.83-.222-.351-.647.424-1.127-.941l.406-.296c.314.665.591.941.795.72zm36.342-26.644c-.591.462-.849-1.383-1.052-1.845.277-.535.664 0 .978-.295.204.849-.738.904.074 2.14zm-21.975 10.167c-.277.646.683 2.122.443 2.768-.333.184-.813-1.255-1.2-1.753.443-.203 0-.997.443-1.218a5.002 5.002 0 01-1.847-1.661c.683-.645 1.57 1.218 1.404-.59.428.41.773.899 1.015 1.439-.221.222-.498-.166-.72 0 .609.812 1.607.775 1.847 2.177-1.071-1.162-.794.683-1.385-1.162zm19.815-15.628c-.37.627-1.016-1.347-1.515-1.975.517-.553 1.127 1.218 1.515 2.012v-.037zm-21.108 13.063a2.035 2.035 0 00-1.293.093c-.794-1.052-.295-1.2-.48-1.846.203-.129 1.311 1.846.942.628.222 0 .554.719.831 1.162v-.037zm-1.847-2.564c-.295.35-.794-1.126-1.071-.536-.277-.627.61-.479-.295-1.531.295 1.439-.628.129-.369-.609.794.258 1.421 1.605 1.717 2.712l.018-.036zm-.886-2.879c.332-.166.739.572 1.163 1.347l-.406.295-.536-.922c.628.184.277.166-.24-.683l.019-.037zm20.683-14.133c-.314.645-.887-1.089-1.33-1.661.517-.461 1.016.922 1.33 1.661zm-38.541 27.842c-.332.462-.794-.221-1.107.388-.444-1.07-1.552-2.565-1.201-3.081 1.256 2.804 1.459 1.623 2.308 2.767v-.074zm12.244-10.461c-.222-.13-.646-.203-.406.313-1.145-1.033-.185-1.107-.351-1.956.443.019-.111.868.757 1.716v-.073zm4.044-5.647c-.369.591-.979-1.143-1.422-1.143-.48-1.126.277-.259.185-1.015a12.207 12.207 0 01-1.736-2.676c1.754 1.236 2.142 3.211 2.973 4.908v-.074zm-1.514-.645c-1.182-.941-1.293-3.285-2.493-4.318 1.145.443 1.754 3.118 2.493 4.391v-.073zm-18.467 12.823c-.443-.812.277-.83-.166-1.642.849.351 1.071 2.436.258 1.716l-.092-.074zm7.59-10.517c-.554-2.159 0-1.218-.665-3.487 1.145 1.808 1.865 3.284.757 3.561l-.092-.074zm8.975-8.451c-.72 0-1.662-1.937-2.456-2.583.72 0-.425-1.845-1.422-3.801.203.093.406.166.591 0 .683.886.332 1.107.609 1.735.443-.48.794 1.605 1.607 1.457 0 .406-.166 2.048.628 1.735.277.609.332 1.033.535 1.531l-.092-.074zm-5.909 2.436l-.702-1.236c.369-.72 1.366.996.702 1.236zm-2.715-1.07c-.942.24-1.219-1.845-2.235-3.192.924.572 1.108 1.55 2.235 3.1v.092zm1.422-1.495c-.314.646-.887-1.088-1.33-1.66.369-.314.868.738 1.33 1.568v.092zm2.53-7.62c-.24-.443-.48-.904-.665-.83-.351-1.329 1.57.332.665.738v.092zm-3.583 1.845c-.646-.277-.48-1.587-.351-1.956.517.775.111 1.07.351 1.808v.148zm-5.152 3.395a40.701 40.701 0 01-2.881-4.022c.517 0 1.274 1.992 1.736 1.347.258.664.979 1.771 1.145 2.527v.148zm-1.496-3.284c-.535-.572-2.364-2.214-1.607-2.786.62.825 1.159 1.709 1.607 2.638v.148zm2.031-6.809c-.627-.922-.387-1.273-1.107-2.269.332-.462.775 0 1.163 0l.886 1.531c-.258.48-.387.628-.942.591v.147zm17.876-13.34c-.258.83-.738-.646-1.015-.111-.314-.941.646-1.033 1.015-.037v.148zm-1.292-1.236c-1.071-2.048-.961-1.144-2.401-3.506.259-.148 0-.59.369-.701.61 1.642 2.05 2.528 2.623 4.207-.462.258-.924.387-1.515-.628.259-.424.573-.221.924.48v.148zm-18.319 10.554c.184.387-.093.443-.222.627a4.766 4.766 0 01-.757-1.66c.517-.48.702 1.051.979.885v.148zm4.173-3.1c0 .738-.997-.756-.665-.83-.628-.757-.11.719-.72.092a1.36 1.36 0 01.129-1.421l1.256 2.159zm-2.142-2.38c.369.922-.794-.332-.665-.83.129-.499.554-.296.887.221a1.504 1.504 0 00-.573-1.329c-.203.111-.406.222-.222.609-.387.203-1.274-3.044-.443-1.439.166-.424-.923-1.624-1.108-.922a3.118 3.118 0 00-.406-1.034c.757-.645.572.314 1.44-.184a27.635 27.635 0 011.847 4.723c-.129.074-1.477-.535-.757.037v.148zm23.527-18.857l.554-.406c.775.959.037 1.531-.554.258v.148zm.369-.701c0-.905-.72-.978-1.256-2.178.573.332.166-.147.554-.387.647.978 1.201 2.011.702 2.38v.185zm-23.785 15.074c-.166.24-.406-.129-.591 0-.573-.756 0-.812-.443-1.421.277-.442.701.923 1.034 1.274v.147zm-5.079-6.808c-.221.092-.886-1.716-.48-1.845.813.904.296 1.07.48 1.697v.148zm.333-3.691c-.24-.922-.979-2.177-.573-2.675.85 1.107.905 1.9.573 2.454v.221zm-1.459-2.878c-.296-.646 0-.849-.628-1.753.52.308.962.731 1.293 1.236.074.48-.351-.221-.665.296v.221zm30.489-25.629c-.37-.479-.24-.664 0-.812-.48-.885-.924-.35-1.034-1.439.48.037 1.606 2.011 1.034 2.251zm-35.623 21.256c-.794.221-.849-1.845 0-1.734.296.756-.868.535.037 1.734h-.037zm1.976-1.845a23.798 23.798 0 00-1.145-2.675c.259-.351.739 1.457.942.627 0 .535.48 1.513.24 1.974l-.037.074zm31.394-26.92c-.425.59-1.275-1.661-.757-1.643.517.628.166.775.794 1.532l-.037.111zm-30.988 23.064a.626.626 0 00-.849.203c-.868-1.679.277-2.03.849-.203zm.979-1.606c-.609.111-.776-.978-.886-1.55.332-.147.831 1.311.849 1.55h.037zm4.007-6.07c-.277-1.07-1.218-2.602-.295-2.86-.259 1.089 1.182 2.122.258 2.86h.037zm22.955-17.547c-.37-.923-1.182-2.177-.407-2.344.536 1.071.905 2.012.37 2.344h.037zm-30.249 21.219c-.886-1.089 0-1.034-.499-1.845.37.11.776.848 1.164 1.347.055.774-.388 0-.702.498h.037zm-1.016-2.768c-.461.24-1.108-1.365-1.699-2.269.758.129 1.422 1.642 1.662 2.269h.037zm6.316-6.034c-.296.351-.609.609-1.071-.516.295-.074.609-.332 1.034.516h.037zm-3.398 2.547c-.369 0-1.053-1.569-1.071-1.845.351.129.665-.148 1.126.941-.461-.351-.572.018-.055.904zm-2.604-8.211l.702 1.236c-.406.277-.942-.646-1.385-.738-.166-.756.702.498.683-.535v.037zm22.733-23.562c-.351-.111-.72-.554-1.145-1.347.295-.941 1.108.83 1.145 1.31v.037zm-29.436 12.251c-.443.517-1.57-2.159-.813-2.066.813 1.015.185 1.107.813 2.029v.037zm14.773-11.938c-.295 0-.609-.221-.886-.221a8.546 8.546 0 00-.536-2.251c.887-.055.979 1.55 1.478 2.435l-.056.037zm-7.386-14.761c-.388 0-.795-.203-1.256-.848.186-.125.365-.261.535-.406l.721 1.254zm12.52-15.96a31.296 31.296 0 00-2.087-4.631c.37-.259 1.164 1.218 1.201 1.753.369 0 0-.628-.259-1.126.868 1.181 1.662 3.137 1.219 3.93l-.074.074zm-7.387-25.315c-.314.35-.72-.388-1.126-.941.351-.683 1.052.092 1.126.867v.074zm-53.978-20.647c.24-.535.609.166.849-.203.462.849-.314 1.328-.849.129v.074zm33-29.522c-.185.83-1.847-1.587-1.2-1.753.406 1.273.535.683 1.2 1.753zm4.635-9.632c-.48 0-.905.535-1.514-.645.277-.351.923-.406 1.514.645zm-20.627-29.171c-.444.48-1.053-.83-1.607-1.458.683-.701.905.794 1.607 1.458zm-98.576 44.283c.794 1.476.96 2.786 1.846 2.989.388 2.491-1.846-.849-2.234-1.845.148.369.72-.221 0-.424-.129-.499.277 0 .388-.646v-.074zm79.795-55.944c.24 1.088-1.053-.923-1.422-1.144-.259-1.015 1.053 1.07 1.422 1.218v-.074zm-1.847-2.583c-.258.203.314.978-.184 1.014-2.327-3.358-2.863-5.535-4.931-8.229.166 1.845-1.127-.719-1.219.904a5.55 5.55 0 001.477 1.55c.407 1.089-.572.332.351 1.845-.461.129-.997-.313-1.477-.221-.665-1.255.665 0-.129-1.218.258-.369.628.351.849-.203-.665.092-1.514-1.587-2.271-2.269 1.256 0 0-1.661.905-1.107.314-.167-.573-1.144-.757-1.643.221-.221.498.166.72-.092.369.757.461 1.458 1.052 1.845 0-.479-.72-1.494-.48-1.845a12.251 12.251 0 011.607 2.786c-.185-1.015.406-1.494-.61-3.081.222-.609.628.517.979 1.033.517-.129 0-.885.665-.498a6.99 6.99 0 01-1.422-2.472c.554 0 1.09 1.679 1.2.424a1.36 1.36 0 01.314 1.531c.222.351.388.093.573 0 .295.702.166.812-.222.609.443.591.96.72 1.034 1.439-.184.259-.406-.11-.591 0 .314 1.846 2.235 3.525 3.38 5.868.184-.332-.259-1.07.314-1.126.517.905-.13 1.052.664 2.159-.96-.092.093 1.403.388 2.344-.664.516-1.366.166-2.197-1.274l.018-.073zm-3.435-.96c-.369-.184-.664 0-1.034-.111l-.886-1.549c.702-.111 1.052 1.273 1.902 1.734l.018-.074zm.795 2.048c-.351-.11-.739-.553-1.164-1.347l.406-.295c.462.775.13.923.739 1.716l.019-.074zm11.209-10.554c-.425.148-.923-.48-1.422-1.144.369-.295.886.517 1.477 1.218l-.055-.074zm-88.641 64.69a37.313 37.313 0 01-3.693-5.646 10.185 10.185 0 013.748 5.72l-.055-.074zm80.165-60.631a5.753 5.753 0 01-1.515-1.955c.296-.536.684 0 .997-.296.554 1.052-.332 1.089.555 2.325l-.037-.074zm-.647-3.468c-.203-.093-.406-.167-.591 0a12.395 12.395 0 01-.978-2.362 12.06 12.06 0 011.606 2.435l-.037-.073zm-6.796.203c-.24.498-.627-.406-.904-.222-.407-.646.406-.498.498-.812.071.407.221.796.443 1.144l-.037-.11zm-78.207 55.741c-.351.221-.978-.923-1.015-1.458a1.937 1.937 0 011.015 1.458zm-6.278-19.596c-1.275-.479-2.198-3.69-3.694-5.535 1.164.092 3.047 3.764 3.694 5.535zm70.174-62.9c-.554-1.439-2.475-2.989-1.589-4.114.481.811.998 2.029 1.293 1.236.374.619.683 1.274.924 1.956-.499.11-.259.682-.591.922h-.037zm-76.435 56.092c-.591.609-1.034-1.255-1.385-2.067.591-.184 1.108 1.329 1.422 2.067h-.037zm74.662-56.535c-.333.185-.813-1.273-1.201-1.753.628-.166 1.219 1.126 1.238 1.753h-.037zm-76.268 53.749l-.702-1.236c.406-.628 1.403 1.088.739 1.236h-.037zm-6.796-10.813c-.425.277-1.422-1.568-.757-1.642.794.48.166.775.794 1.642h-.037zm2.105-4.668c-2.474-2.066-3.693-6.476-5.872-7.528-.739-.867.314-.553-.425-1.439.837.067 1.67.185 2.493.35.388 1.938 2.087 2.879 2.899 4.023.48.959.203 1.402 1.145 2.657-.683.424-.665-.812-1.477-1.55-.683 1.052 1.053 2.288 1.274 3.487h-.037zm-5.226 0c.388-.24 0-.701.536-.387-.111-.203-.222-.425-.351-.628.277-.922 1.292 3.395-.13.941l-.055.074zm1.44-1.513c-.59-.129-.997-.701-1.329-1.642.388-.295.886.757 1.366 1.568l-.037.074zm12.466-11.071c.406 1.015-.61-.553-.721.093-.129-.646-.424-1.421 0-1.735.794.757.222 1.587.758 1.587l-.037.055zm.683-3.155c-.203.166-1.182-.978-.406.314-2.586-2.067-.425-2.62-.573-2.657-.148-.037.203 0 .314.203l.277-.203c.351.867.092 1.384.425 2.288l-.037.055zm-14.977 10.315c-.48.461-1.255-1.846-1.846-1.846-.093-1.125 1.255.425 1.846 1.846zm10.397-8.636c-.406.296-1.643-1.845-.923-1.955.738 1.107.775.941.923 1.9v.055zm-12.613 2.787c.591-.462 1.182-.794 1.976.738-1.052-1.2-.794 1.42-1.976-.794v.056zm-2.105 3.339a6.697 6.697 0 00-2.013-2.472c.757-.517 2.456 1.734 2.899 2.694-.35.166-1.015-1.403-.886-.277v.055zm5.115-5.129c-.295 0-.646-.48-.978-1.034a5.69 5.69 0 01.535-.405c.739.811-.295.498.443 1.383v.056zm-4.783-2.62c.148.978-.517-1.015-.572-1.347 1.182 0 1.57-.332 2.641.258.332 1.476-.148 2.436.111 3.875-.942-1.033-1.404-1.31-1.718-2.676-.258-.387-.702-.664-.462-.166v.056zm0 1.328c.24.701-.812.332-1.108.388-.646-.868-.517-1.218-.941-1.956.664.295 1.422 1.513 2.049 1.513v.055zm7.627-6.126c.259.517-.757.093-.942.702-.517-.905-.11-1.218-.35-1.938.332-.516.904 1.273 1.292 1.181v.055zm-9.953 4.761c-.591-.388-.351.221-.665.498l-.536-.923c.185-.332 1.127.517.37-.701.203-.11.554.628.831 1.07v.056zm69.86-52.512c-.702.184-1.404-1.698-1.847-2.584a7.173 7.173 0 011.847 2.528v.056zm1.976-11.606a1.558 1.558 0 01-1.256.498 18.457 18.457 0 00-.887-2.879c.628 0 1.385 1.144 2.143 2.325v.056zm1.532-4.669c-.683.48-.664-.811-1.514-1.974.739-.277.757.757 1.514 1.919v.055zm-10.175 6.698l-.702-1.236c.665-.664.481-.775.979-1.624l.72 1.237c-1.237-.702-.535.738-.997 1.568v.055zm-44.173 30.722c-.332-1.052 0-1.716-.443-2.768-.295-.572-.535-.535-.831-1.144-.369.203-.48.59-.332 1.126.148.535.111-.24.406-.296.332.535.222.775.591 1.329-.295.535-.776-.941-1.034-.111-.259.83.868 1.033.757 1.642-.499.351-1.293-2.177-1.736-1.347-.646-.885-.517-1.236-.942-1.956-.572 0 .167.868.444 1.44l-.536.387a15.182 15.182 0 01-1.293-2.565c-.24-.276-1.145-.701-.406.296a12.28 12.28 0 01-2.124-5.019c-.664-1.052-.277.996-.72 0-.111-.701.259-1.716.683-1.845 1.016 2.066 1.164 3.561 2.032 5.535.258-.59-.388-1.845-.887-2.878.85.221.24-.443 0-1.329.979 0 1.552 2.048 2.53 3.414a9.363 9.363 0 00-2.53-4.724c.333-.48.85.72 1.164 0-.148-.812-.517-.904-1.071-1.845.535-.406 1.311 1.329 2.013 2.473-.444-.536-1.182-.517-.684.498 1.201.719 1.847 2.232 3.25 3.321-.258-1.421-1.625-1.845-2.4-3.506.812.332-.203-.424-.13-1.218.462-.313.961-.147 1.515.628a.905.905 0 01-.61-.425c1.367 3.562 2.937 4.816 3.269 6.385l-.794.59c.886.904.72 1.439 1.274 2.565-.96-.277.24.922-.425 1.291v.056zm-4.062 0c-.665-1.403-.813-1.956-1.127-.941-.406-.941 0-1.716-.923-1.956-.665-1.015-.129-1.218-.351-1.845.682.66 1.3 1.383 1.847 2.158-1.533-.036 1.274 1.809.554 2.473v.111zm6.574-2.27c-.425 0-1.274-1.107-1.33-1.642.517-.554.998.738 1.33 1.531v.111zm-9.381-.941c-.813-.609-.979-2.288-1.847-2.177-.72-1.199.259 0 0-.904-.776-.941-1.717-2.86-2.087-3.303.222-.609.628.517.979 1.033.406-.609-.295-1.956-1.256-3.487.591 0 1.164.664 1.348.332.351 1.052-.221.369.924 1.956-.314.111-.739-.646-1.053-.535a11.37 11.37 0 013.103 4.742 23.176 23.176 0 00-2.807-3.211c.351 1.163 3.25 4.299 2.696 5.443v.111zm-10.877 5.535c-.462 0-1.478-2.103-.794-2.048.386.556.639 1.194.738 1.864l.056.184zm52.298-40.297c-.185-.314-.351-.627-.536-.923l.813-.609c.24.554.148 1.052-.277 1.347v.185zm-52.354 36.644a4.12 4.12 0 00-.277-1.125c.37-.222.979.904 1.035 1.439-.481-.332-.85.277-1.386-.738.148-.277.37.055.628.424zm9.234-9.059l-.702-1.237.536-.406c.554.923.609 1.477.166 1.643zm-10.545 7.768c-.905 0-1.219-2.787-.535-2.27.333.712.515 1.484.535 2.27zm13.592-14.116l-.536.406c-.184-.369-.35-.516-.498-.516-.296-.702.683-.665 1.034.166v-.056zm-9.548 4.466c-.627.147-1.107-1.55-.609-1.846.462.905.332 1.274.609 1.901v-.055zm-2.123-2.381a4.564 4.564 0 01-.757-1.642c.258-.313.664.775.923.628.295.627.185.941-.166 1.07v-.056zm22.16-39.485c-.849-.665.443 1.679-.425 1.623-.886-2.583-3.102-4.594-3.693-7.38.462-.332.905-.664.092-1.845.794.221.628-.517 1.219-.904.406.978.148 1.513.388 2.361 1.256.886 1.699 2.823 2.364 3.1a1.842 1.842 0 01-.24 1.938c.941.867 1.274 1.642.849 2.454-.332-.24-.776-.978-.499-1.292l-.055-.055zm.794.719c1.237.462.203-1.42.813-1.845 1.68 3.93 5.65 9.06 5.152 11.588a3.851 3.851 0 011.108 2.269c.609.867.111-.517.535-.406.437.998.602 2.092.481 3.174-1.736-3.266-2.623-4.207-3.601-6.587-.13.166.203.645.406 1.033-2.567-1.292-1.995-3.543-4.82-7.012a3.241 3.241 0 01.72-1.42c-.203-.259-.351-.093-.739-.738l-.055-.056zm13.555-.83c-.388.627-1.385-1.089-.72-1.236l.72 1.236zm-32.668 24.337c-1.422-2.269-1.108.683 0 0zm.351-.701c-.407.277-1.422-1.568-.757-1.642.535.756.203.904.812 1.697l-.055-.055zm32.594-25.518c-.887-1.163-.407-1.421-.979-2.362a5.521 5.521 0 011.477 1.55.796.796 0 01-.498.812zm-4.488-6.79a5.55 5.55 0 01-1.846-1.255c-.499.664.794.867.591 1.329-.204.461-1.016-1.329-1.515-1.956.628-.332-.48-1.845 0-2.251.665 1.199 1.348 2.509 1.847 2.177.628.867.499 1.218.923 1.956zm-33.72 19.835c-.462.24-1.237-1.458-.757-1.642.351.496.608 1.053.757 1.642zm.406-5.535c.185.627.96 1.66.499 1.845-.462-.886-1.237-1.975-.499-1.975v.13zm-2.179-1.458c.295-.627-.425-1.698.628-.904-.406-1.439-2.179-3.1-1.274-3.912 1.219 1.993 2.899 4.244 2.825 6.274-.425 0-.979-1.126-1.459-1.55a8.634 8.634 0 002.346 4.428c-.462 1.199-2.493-2.436-2.567-3.819-.185-.406-1.016-.775-.591 0-.665-.406-1.108-2.27-1.33-2.99.665-.442 1.293 1.956 1.422 2.399v.074zm23.564-13.156c-.794.129-.979-1.255-1.662-1.845-.314.277.461 1.31.498 1.845-.572 0-1.2-.332-1.846-1.254 0-2.122 1.182-1.311 1.218-3.562.647 1.513.998.259 1.662 1.846-.738-.222-1.108-.148-1.089.793.683.867 1.163 1.015 1.219 2.103v.074zm-25.743 8.949c-.886-.351-.757-1.107-1.551-2.362a3.282 3.282 0 011.551 2.362zm200.365 389.709a19.254 19.254 0 01-1.957-3.414c.332 0 .757.702 1.034.13-.185 1.181 1.2 1.992.923 3.302v-.018zm-3.268-10.37c.775.222.646 1.347 1.255.831.85 1.328.702 1.679 1.422 2.472-.942.295-1.883-1.734-2.677-3.284v-.019zm.849 2.473c.776 1.993-.683-.111-.997-1.033.492.145.929.434 1.256.83.368.769.694 1.558.978 2.362-.923-.037-.517-1.107-1.237-2.141v-.018z" clip-rule="evenodd"/>
</svg>
