<svg width="317" height="82" viewBox="0 0 317 82" fill="none" xmlns="http://www.w3.org/2000/svg">
<g filter="url(#filter0_d_3_25)">
<path d="M66.25 72H55.4219L51.5781 62.9531H13.4688L9.71875 72H4.04688L29.5938 11.25L25.8438 2.29688H36.8125L66.25 72ZM15.3906 58.3594H49.6562L32.3594 17.8594L15.3906 58.3594ZM71.6725 36.2812C71.6725 41 72.4381 45.2812 73.9694 49.125C75.5319 52.9375 77.7506 56.2031 80.6256 58.9219C83.5006 61.6406 87.0006 63.7344 91.1256 65.2031C95.2819 66.6719 99.9381 67.4062 105.094 67.4062H115.36V26.8594H125.626V72H100.876C97.1569 72 93.5788 71.6719 90.1413 71.0156C86.7038 70.3594 83.485 69.375 80.485 68.0625C77.485 66.75 74.7663 65.1094 72.3288 63.1406C69.8913 61.1719 67.7975 58.8594 66.0475 56.2031C64.2975 53.5469 62.9381 50.5625 61.9694 47.25C61.0319 43.9375 60.5631 40.2812 60.5631 36.2812C60.5631 32.9375 61.0006 29.7344 61.8756 26.6719C62.7819 23.6094 64.0319 20.7656 65.6256 18.1406C67.2506 15.5156 69.1881 13.1406 71.4381 11.0156C73.7194 8.89063 76.235 7.07812 78.985 5.57812C81.7663 4.04687 84.7506 2.875 87.9381 2.0625C91.1256 1.25 94.4538 0.84375 97.9225 0.84375C103.329 0.84375 108.36 1.73438 113.016 3.51562C117.673 5.29688 121.798 7.73438 125.391 10.8281L122.766 14.2969C121.329 13.0781 119.735 11.9375 117.985 10.875C116.266 9.8125 114.423 8.89063 112.454 8.10938C110.516 7.32812 108.501 6.71875 106.407 6.28125C104.313 5.84375 102.204 5.625 100.079 5.625C95.6725 5.65625 91.7194 6.45313 88.2194 8.01562C84.7194 9.54688 81.735 11.6875 79.2663 14.4375C76.8288 17.1562 74.9538 20.375 73.6413 24.0938C72.3288 27.8125 71.6725 31.875 71.6725 36.2812ZM164.001 73.3594C160.564 73.3594 157.251 72.9219 154.064 72.0469C150.908 71.1719 147.939 69.9531 145.158 68.3906C142.408 66.7969 139.892 64.8906 137.611 62.6719C135.361 60.4531 133.423 58 131.798 55.3125C130.173 52.5938 128.908 49.6875 128.001 46.5938C127.126 43.4688 126.689 40.2188 126.689 36.8438C126.689 33.5312 127.126 30.3281 128.001 27.2344C128.908 24.1406 130.173 21.25 131.798 18.5625C133.423 15.875 135.361 13.4219 137.611 11.2031C139.892 8.98438 142.408 7.09375 145.158 5.53125C147.939 3.96875 150.908 2.75 154.064 1.875C157.251 1 160.564 0.5625 164.001 0.5625C167.408 0.5625 170.689 1 173.845 1.875C177.001 2.71875 179.954 3.9375 182.704 5.53125C185.454 7.09375 187.954 8.98438 190.204 11.2031C192.486 13.4219 194.423 15.875 196.017 18.5625C197.642 21.25 198.892 24.1406 199.767 27.2344C200.673 30.3281 201.126 33.5312 201.126 36.8438C201.126 40.2188 200.673 43.4688 199.767 46.5938C198.892 49.6875 197.642 52.5938 196.017 55.3125C194.423 58 192.486 60.4531 190.204 62.6719C187.954 64.8906 185.454 66.7969 182.704 68.3906C179.954 69.9531 177.001 71.1719 173.845 72.0469C170.689 72.9219 167.408 73.3594 164.001 73.3594ZM164.001 68.8125C168.251 68.8125 172.001 67.9844 175.251 66.3281C178.533 64.6719 181.283 62.4062 183.501 59.5312C185.72 56.6562 187.392 53.2812 188.517 49.4062C189.673 45.5 190.251 41.3125 190.251 36.8438C190.251 32.4062 189.689 28.25 188.564 24.375C187.439 20.5 185.767 17.1406 183.548 14.2969C181.361 11.4531 178.626 9.21875 175.345 7.59375C172.064 5.9375 168.283 5.10938 164.001 5.10938C159.658 5.10938 155.845 5.9375 152.564 7.59375C149.314 9.21875 146.579 11.4531 144.361 14.2969C142.173 17.1406 140.517 20.5 139.392 24.375C138.298 28.25 137.751 32.4062 137.751 36.8438C137.751 41.3125 138.314 45.5 139.439 49.4062C140.564 53.2812 142.22 56.6562 144.408 59.5312C146.626 62.4062 149.376 64.6719 152.658 66.3281C155.939 67.9844 159.72 68.8125 164.001 68.8125ZM226.752 2.29688C230.721 2.29688 234.143 2.65625 237.018 3.375C239.924 4.0625 242.377 4.98437 244.377 6.14062C246.408 7.29688 248.033 8.625 249.252 10.125C250.502 11.625 251.455 13.1719 252.111 14.7656C252.799 16.3594 253.252 17.9531 253.471 19.5469C253.721 21.1094 253.846 22.5625 253.846 23.9062C253.846 25.625 253.564 27.5469 253.002 29.6719C252.471 31.7969 251.486 33.8594 250.049 35.8594C248.643 37.8594 246.705 39.6719 244.236 41.2969C241.768 42.8906 238.627 44.0312 234.814 44.7188L254.971 72H242.408L222.721 45.4219H215.127V72H204.861V2.29688H226.752ZM215.127 6.89062V40.7812H220.986C224.33 40.7812 227.346 40.4844 230.033 39.8906C232.752 39.2656 235.064 38.2812 236.971 36.9375C238.908 35.5625 240.393 33.7969 241.424 31.6406C242.455 29.4531 242.971 26.8125 242.971 23.7188C242.971 20.2188 242.346 17.375 241.096 15.1875C239.846 12.9688 238.189 11.25 236.127 10.0312C234.096 8.8125 231.768 7.98437 229.143 7.54688C226.518 7.10938 223.83 6.89062 221.08 6.89062H215.127ZM312.284 72H301.456L297.612 62.9531H259.503L255.753 72H250.081L275.628 11.25L271.878 2.29688H282.846L312.284 72ZM261.424 58.3594H295.69L278.393 17.8594L261.424 58.3594Z" fill="#E9E9E9"/>
</g>
<defs>
<filter id="filter0_d_3_25" x="0.046875" y="0.5625" width="316.237" height="80.7969" filterUnits="userSpaceOnUse" color-interpolation-filters="sRGB">
<feFlood flood-opacity="0" result="BackgroundImageFix"/>
<feColorMatrix in="SourceAlpha" type="matrix" values="0 0 0 0 0 0 0 0 0 0 0 0 0 0 0 0 0 0 127 0" result="hardAlpha"/>
<feOffset dy="4"/>
<feGaussianBlur stdDeviation="2"/>
<feComposite in2="hardAlpha" operator="out"/>
<feColorMatrix type="matrix" values="0 0 0 0 0 0 0 0 0 0 0 0 0 0 0 0 0 0 0.25 0"/>
<feBlend mode="normal" in2="BackgroundImageFix" result="effect1_dropShadow_3_25"/>
<feBlend mode="normal" in="SourceGraphic" in2="effect1_dropShadow_3_25" result="shape"/>
</filter>
</defs>
</svg>
