<svg width="343" height="82" viewBox="0 0 343 82" fill="none" xmlns="http://www.w3.org/2000/svg">
<g filter="url(#filter0_d_2_19)">
<path d="M47.4219 2.29688V6.89062H15.0781V28.0312H46.4375V32.625H15.0781V72H4.8125V2.29688H47.4219ZM94.4694 2.29688H104.735V72H94.4694V66.5156L83.0319 70.3594C81.4694 70.8906 79.8913 71.3438 78.2975 71.7188C76.7038 72.0938 75.1569 72.4062 73.6569 72.6562C72.1569 72.9062 70.735 73.0781 69.3913 73.1719C68.0475 73.2969 66.86 73.3594 65.8288 73.3594C63.61 73.3594 61.7194 73.1094 60.1569 72.6094C58.5944 72.1406 57.2975 71.5312 56.2663 70.7812C55.235 70 54.4225 69.1406 53.8288 68.2031C53.235 67.2656 52.7819 66.3594 52.4694 65.4844C52.1881 64.6094 52.0006 63.8125 51.9069 63.0938C51.8444 62.3438 51.8131 61.7969 51.8131 61.4531V2.29688H62.1256V57.4219C62.1256 58.0156 62.1881 58.8594 62.3131 59.9531C62.4381 61.0156 62.7975 62.0781 63.3913 63.1406C63.985 64.1719 64.9069 65.0781 66.1569 65.8594C67.4069 66.6406 69.1569 67.0312 71.4069 67.0312C73.2506 67.0312 75.0475 66.9375 76.7975 66.75C78.5475 66.5625 80.3288 66.2812 82.1413 65.9062C83.985 65.5312 85.9069 65.0625 87.9069 64.5C89.9069 63.9062 92.0944 63.2031 94.4694 62.3906V2.29688ZM151.361 2.29688V6.89062H134.486V72H124.22V6.89062H107.204V2.29688H151.361ZM196.064 2.29688H206.33V72H196.064V66.5156L184.627 70.3594C183.064 70.8906 181.486 71.3438 179.893 71.7188C178.299 72.0938 176.752 72.4062 175.252 72.6562C173.752 72.9062 172.33 73.0781 170.986 73.1719C169.643 73.2969 168.455 73.3594 167.424 73.3594C165.205 73.3594 163.314 73.1094 161.752 72.6094C160.189 72.1406 158.893 71.5312 157.861 70.7812C156.83 70 156.018 69.1406 155.424 68.2031C154.83 67.2656 154.377 66.3594 154.064 65.4844C153.783 64.6094 153.596 63.8125 153.502 63.0938C153.439 62.3438 153.408 61.7969 153.408 61.4531V2.29688H163.721V57.4219C163.721 58.0156 163.783 58.8594 163.908 59.9531C164.033 61.0156 164.393 62.0781 164.986 63.1406C165.58 64.1719 166.502 65.0781 167.752 65.8594C169.002 66.6406 170.752 67.0312 173.002 67.0312C174.846 67.0312 176.643 66.9375 178.393 66.75C180.143 66.5625 181.924 66.2812 183.736 65.9062C185.58 65.5312 187.502 65.0625 189.502 64.5C191.502 63.9062 193.689 63.2031 196.064 62.3906V2.29688ZM237.206 2.29688C241.174 2.29688 244.596 2.65625 247.471 3.375C250.378 4.0625 252.831 4.98437 254.831 6.14062C256.862 7.29688 258.487 8.625 259.706 10.125C260.956 11.625 261.909 13.1719 262.565 14.7656C263.253 16.3594 263.706 17.9531 263.924 19.5469C264.174 21.1094 264.299 22.5625 264.299 23.9062C264.299 25.625 264.018 27.5469 263.456 29.6719C262.924 31.7969 261.94 33.8594 260.503 35.8594C259.096 37.8594 257.159 39.6719 254.69 41.2969C252.221 42.8906 249.081 44.0312 245.268 44.7188L265.424 72H252.862L233.174 45.4219H225.581V72H215.315V2.29688H237.206ZM225.581 6.89062V40.7812H231.44C234.784 40.7812 237.799 40.4844 240.487 39.8906C243.206 39.2656 245.518 38.2812 247.424 36.9375C249.362 35.5625 250.846 33.7969 251.878 31.6406C252.909 29.4531 253.424 26.8125 253.424 23.7188C253.424 20.2188 252.799 17.375 251.549 15.1875C250.299 12.9688 248.643 11.25 246.581 10.0312C244.549 8.8125 242.221 7.98437 239.596 7.54688C236.971 7.10938 234.284 6.89062 231.534 6.89062H225.581ZM301.362 73.3594C297.925 73.3594 294.612 72.9219 291.425 72.0469C288.269 71.1719 285.3 69.9531 282.519 68.3906C279.769 66.7969 277.253 64.8906 274.972 62.6719C272.722 60.4531 270.784 58 269.159 55.3125C267.534 52.5938 266.269 49.6875 265.362 46.5938C264.487 43.4688 264.05 40.2188 264.05 36.8438C264.05 33.5312 264.487 30.3281 265.362 27.2344C266.269 24.1406 267.534 21.25 269.159 18.5625C270.784 15.875 272.722 13.4219 274.972 11.2031C277.253 8.98438 279.769 7.09375 282.519 5.53125C285.3 3.96875 288.269 2.75 291.425 1.875C294.612 1 297.925 0.5625 301.362 0.5625C304.769 0.5625 308.05 1 311.206 1.875C314.362 2.71875 317.316 3.9375 320.066 5.53125C322.816 7.09375 325.316 8.98438 327.566 11.2031C329.847 13.4219 331.784 15.875 333.378 18.5625C335.003 21.25 336.253 24.1406 337.128 27.2344C338.034 30.3281 338.487 33.5312 338.487 36.8438C338.487 40.2188 338.034 43.4688 337.128 46.5938C336.253 49.6875 335.003 52.5938 333.378 55.3125C331.784 58 329.847 60.4531 327.566 62.6719C325.316 64.8906 322.816 66.7969 320.066 68.3906C317.316 69.9531 314.362 71.1719 311.206 72.0469C308.05 72.9219 304.769 73.3594 301.362 73.3594ZM301.362 68.8125C305.612 68.8125 309.362 67.9844 312.612 66.3281C315.894 64.6719 318.644 62.4062 320.862 59.5312C323.081 56.6562 324.753 53.2812 325.878 49.4062C327.034 45.5 327.612 41.3125 327.612 36.8438C327.612 32.4062 327.05 28.25 325.925 24.375C324.8 20.5 323.128 17.1406 320.909 14.2969C318.722 11.4531 315.987 9.21875 312.706 7.59375C309.425 5.9375 305.644 5.10938 301.362 5.10938C297.019 5.10938 293.206 5.9375 289.925 7.59375C286.675 9.21875 283.941 11.4531 281.722 14.2969C279.534 17.1406 277.878 20.5 276.753 24.375C275.659 28.25 275.112 32.4062 275.112 36.8438C275.112 41.3125 275.675 45.5 276.8 49.4062C277.925 53.2812 279.581 56.6562 281.769 59.5312C283.987 62.4062 286.737 64.6719 290.019 66.3281C293.3 67.9844 297.081 68.8125 301.362 68.8125Z" fill="#E9E9E9"/>
</g>
<defs>
<filter id="filter0_d_2_19" x="0.8125" y="0.5625" width="341.675" height="80.7969" filterUnits="userSpaceOnUse" color-interpolation-filters="sRGB">
<feFlood flood-opacity="0" result="BackgroundImageFix"/>
<feColorMatrix in="SourceAlpha" type="matrix" values="0 0 0 0 0 0 0 0 0 0 0 0 0 0 0 0 0 0 127 0" result="hardAlpha"/>
<feOffset dy="4"/>
<feGaussianBlur stdDeviation="2"/>
<feComposite in2="hardAlpha" operator="out"/>
<feColorMatrix type="matrix" values="0 0 0 0 0 0 0 0 0 0 0 0 0 0 0 0 0 0 0.25 0"/>
<feBlend mode="normal" in2="BackgroundImageFix" result="effect1_dropShadow_2_19"/>
<feBlend mode="normal" in="SourceGraphic" in2="effect1_dropShadow_2_19" result="shape"/>
</filter>
</defs>
</svg>
