<svg width="110" height="33" viewBox="0 0 110 33" fill="none" xmlns="http://www.w3.org/2000/svg">
<g filter="url(#filter0_d_3_23)">
<path d="M16.6562 1C18.0312 1 19.3438 1.22917 20.5938 1.6875C21.8542 2.13542 22.9896 2.77083 24 3.59375C25.0104 4.40625 25.8698 5.38542 26.5781 6.53125C27.2865 7.66667 27.7865 8.92188 28.0781 10.2969H26.6562C26.3646 9.16146 25.9062 8.11979 25.2812 7.17188C24.6562 6.21354 23.901 5.39583 23.0156 4.71875C22.1406 4.03125 21.1615 3.5 20.0781 3.125C18.9948 2.73958 17.8542 2.54688 16.6562 2.54688C15.6979 2.54688 14.776 2.67188 13.8906 2.92188C13.0156 3.16146 12.1927 3.50521 11.4219 3.95312C10.6615 4.39062 9.96875 4.92188 9.34375 5.54688C8.71875 6.16146 8.18229 6.84896 7.73438 7.60938C7.28646 8.36979 6.9375 9.1875 6.6875 10.0625C6.44792 10.9375 6.32812 11.849 6.32812 12.7969C6.32812 13.7448 6.44792 14.6562 6.6875 15.5312C6.9375 16.4062 7.28646 17.224 7.73438 17.9844C8.18229 18.7448 8.71875 19.4375 9.34375 20.0625C9.96875 20.6771 10.6615 21.2083 11.4219 21.6562C12.1927 22.0938 13.0156 22.4375 13.8906 22.6875C14.776 22.9271 15.6979 23.0469 16.6562 23.0469C17.8438 23.0469 18.9792 22.8594 20.0625 22.4844C21.1458 22.099 22.125 21.5677 23 20.8906C23.8854 20.2135 24.6406 19.401 25.2656 18.4531C25.901 17.5052 26.3646 16.4583 26.6562 15.3125H28.0781C27.7656 16.6875 27.2552 17.9375 26.5469 19.0625C25.849 20.1875 25 21.151 24 21.9531C23 22.7448 21.875 23.3594 20.625 23.7969C19.375 24.224 18.0521 24.4375 16.6562 24.4375C15.5729 24.4375 14.526 24.3021 13.5156 24.0312C12.5156 23.7604 11.5781 23.375 10.7031 22.875C9.83854 22.375 9.05208 21.776 8.34375 21.0781C7.63542 20.3802 7.02604 19.599 6.51562 18.7344C6.01562 17.8698 5.625 16.9375 5.34375 15.9375C5.07292 14.9375 4.9375 13.8906 4.9375 12.7969C4.9375 11.6927 5.07292 10.6354 5.34375 9.625C5.625 8.61458 6.01562 7.67188 6.51562 6.79688C7.02604 5.92188 7.63542 5.13021 8.34375 4.42188C9.05208 3.70312 9.83854 3.09375 10.7031 2.59375C11.5781 2.08333 12.5156 1.69271 13.5156 1.42188C14.5156 1.14062 15.5625 1 16.6562 1ZM38.245 0.796875L50.0419 23.7031H48.4794L38.245 3.84375L28.0262 23.7031H26.4481L38.245 0.796875ZM59.5056 1.84375C60.5369 1.84375 61.5056 2.02083 62.4119 2.375C63.3181 2.72917 64.1046 3.21354 64.7712 3.82812C65.4483 4.44271 65.9796 5.16667 66.365 6C66.7608 6.82292 66.9587 7.70312 66.9587 8.64062C66.9587 9.42188 66.8233 10.1615 66.5525 10.8594C66.2921 11.5573 65.9223 12.1979 65.4431 12.7812C64.964 13.3542 64.3962 13.8594 63.74 14.2969C63.0942 14.724 62.3806 15.0573 61.5994 15.2969L66.8181 23.7031H64.9587L59.615 15.5625H51.5369V23.7031H50.1462V1.84375H59.5056ZM51.5369 14.2188H59.5681C60.4431 14.2188 61.2504 14.0729 61.99 13.7812C62.74 13.4896 63.3858 13.0938 63.9275 12.5938C64.4796 12.0833 64.9067 11.4896 65.2087 10.8125C65.5212 10.1354 65.6775 9.41146 65.6775 8.64062C65.6775 7.85938 65.5212 7.14062 65.2087 6.48438C64.9067 5.81771 64.4796 5.24479 63.9275 4.76562C63.3858 4.27604 62.74 3.89583 61.99 3.625C61.2504 3.35417 60.4431 3.21875 59.5681 3.21875H51.5369V14.2188ZM69.4225 1.84375H78.7819C79.8131 1.84375 80.7819 2.02083 81.6881 2.375C82.5944 2.72917 83.3808 3.21354 84.0475 3.82812C84.7246 4.44271 85.2558 5.16667 85.6413 6C86.0371 6.82292 86.235 7.70312 86.235 8.64062C86.235 9.51562 86.0683 10.3698 85.735 11.2031C85.4017 12.0365 84.9173 12.776 84.2819 13.4219C83.6465 14.0677 82.8652 14.5885 81.9381 14.9844C81.0215 15.3698 79.9694 15.5625 78.7819 15.5625H70.8131V23.7031H69.4225V1.84375ZM78.8444 14.2188C79.7194 14.2188 80.5267 14.0729 81.2663 13.7812C82.0163 13.4896 82.6621 13.0938 83.2038 12.5938C83.7558 12.0833 84.1829 11.4896 84.485 10.8125C84.7975 10.1354 84.9538 9.41146 84.9538 8.64062C84.9538 7.85938 84.7975 7.14062 84.485 6.48438C84.1829 5.81771 83.7558 5.24479 83.2038 4.76562C82.6621 4.27604 82.0163 3.89583 81.2663 3.625C80.5267 3.35417 79.7194 3.21875 78.8444 3.21875H70.8131V14.2188H78.8444ZM93.2925 0.796875L105.089 23.7031H103.527L93.2925 3.84375L83.0737 23.7031H81.4956L93.2925 0.796875Z" fill="#E9E9E9"/>
</g>
<defs>
<filter id="filter0_d_3_23" x="0.9375" y="0.796875" width="108.152" height="31.6406" filterUnits="userSpaceOnUse" color-interpolation-filters="sRGB">
<feFlood flood-opacity="0" result="BackgroundImageFix"/>
<feColorMatrix in="SourceAlpha" type="matrix" values="0 0 0 0 0 0 0 0 0 0 0 0 0 0 0 0 0 0 127 0" result="hardAlpha"/>
<feOffset dy="4"/>
<feGaussianBlur stdDeviation="2"/>
<feComposite in2="hardAlpha" operator="out"/>
<feColorMatrix type="matrix" values="0 0 0 0 0 0 0 0 0 0 0 0 0 0 0 0 0 0 0.25 0"/>
<feBlend mode="normal" in2="BackgroundImageFix" result="effect1_dropShadow_3_23"/>
<feBlend mode="normal" in="SourceGraphic" in2="effect1_dropShadow_3_23" result="shape"/>
</filter>
</defs>
</svg>
